<mxfile host="app.diagrams.net" agent="Mozilla/5.0 (Windows NT 10.0; Win64; x64) AppleWebKit/537.36 (KHTML, like Gecko) Chrome/130.0.0.0 Safari/537.36 Edg/130.0.0.0" version="24.8.3">
  <diagram name="Page-1" id="2ca16b54-16f6-2749-3443-fa8db7711227">
    <mxGraphModel dx="5127" dy="5617" grid="1" gridSize="10" guides="1" tooltips="1" connect="1" arrows="1" fold="1" page="0" pageScale="1" pageWidth="1100" pageHeight="850" background="none" math="0" shadow="0">
      <root>
        <mxCell id="0" />
        <mxCell id="1" parent="0" />
        <mxCell id="gQomMeaBvaKWh9qNt1xV-3" value="Site" style="shape=table;startSize=40;container=1;collapsible=0;childLayout=tableLayout;strokeColor=#6c8ebf;fontSize=16;fontFamily=Helvetica;align=center;fontStyle=1;fillColor=#dae8fc;gradientColor=none;swimlaneFillColor=default;" vertex="1" parent="1">
          <mxGeometry x="-120" width="400.0000000000009" height="440" as="geometry" />
        </mxCell>
        <mxCell id="gQomMeaBvaKWh9qNt1xV-4" value="" style="shape=tableRow;horizontal=0;startSize=0;swimlaneHead=0;swimlaneBody=0;strokeColor=inherit;top=0;left=0;bottom=0;right=0;collapsible=0;dropTarget=0;fillColor=none;points=[[0,0.5],[1,0.5]];portConstraint=eastwest;fontSize=16;" vertex="1" parent="gQomMeaBvaKWh9qNt1xV-3">
          <mxGeometry y="40" width="400.0000000000009" height="40" as="geometry" />
        </mxCell>
        <mxCell id="gQomMeaBvaKWh9qNt1xV-5" value="PK" style="shape=partialRectangle;html=1;whiteSpace=wrap;connectable=0;strokeColor=inherit;overflow=hidden;fillColor=none;top=0;left=0;bottom=0;right=0;pointerEvents=1;fontSize=16;align=center;" vertex="1" parent="gQomMeaBvaKWh9qNt1xV-4">
          <mxGeometry width="87" height="40" as="geometry">
            <mxRectangle width="87" height="40" as="alternateBounds" />
          </mxGeometry>
        </mxCell>
        <mxCell id="gQomMeaBvaKWh9qNt1xV-6" value="SiteID" style="shape=partialRectangle;html=1;whiteSpace=wrap;connectable=0;strokeColor=inherit;overflow=hidden;fillColor=none;top=0;left=0;bottom=0;right=0;pointerEvents=1;fontSize=13;align=left;" vertex="1" parent="gQomMeaBvaKWh9qNt1xV-4">
          <mxGeometry x="87" width="113" height="40" as="geometry">
            <mxRectangle width="113" height="40" as="alternateBounds" />
          </mxGeometry>
        </mxCell>
        <mxCell id="gQomMeaBvaKWh9qNt1xV-7" value="" style="shape=partialRectangle;html=1;whiteSpace=wrap;connectable=0;strokeColor=inherit;overflow=hidden;fillColor=none;top=0;left=0;bottom=0;right=0;pointerEvents=1;fontSize=16;" vertex="1" parent="gQomMeaBvaKWh9qNt1xV-4">
          <mxGeometry x="200" width="200" height="40" as="geometry">
            <mxRectangle width="200" height="40" as="alternateBounds" />
          </mxGeometry>
        </mxCell>
        <mxCell id="gQomMeaBvaKWh9qNt1xV-132" value="" style="shape=tableRow;horizontal=0;startSize=0;swimlaneHead=0;swimlaneBody=0;strokeColor=inherit;top=0;left=0;bottom=0;right=0;collapsible=0;dropTarget=0;fillColor=none;points=[[0,0.5],[1,0.5]];portConstraint=eastwest;fontSize=16;" vertex="1" parent="gQomMeaBvaKWh9qNt1xV-3">
          <mxGeometry y="80" width="400.0000000000009" height="40" as="geometry" />
        </mxCell>
        <mxCell id="gQomMeaBvaKWh9qNt1xV-133" value="FK" style="shape=partialRectangle;html=1;whiteSpace=wrap;connectable=0;strokeColor=inherit;overflow=hidden;fillColor=none;top=0;left=0;bottom=0;right=0;pointerEvents=1;fontSize=16;" vertex="1" parent="gQomMeaBvaKWh9qNt1xV-132">
          <mxGeometry width="87" height="40" as="geometry">
            <mxRectangle width="87" height="40" as="alternateBounds" />
          </mxGeometry>
        </mxCell>
        <mxCell id="gQomMeaBvaKWh9qNt1xV-134" value="&lt;span style=&quot;font-family: Verdana; text-wrap-mode: nowrap;&quot;&gt;SiteCategory&lt;/span&gt;" style="shape=partialRectangle;html=1;whiteSpace=wrap;connectable=0;strokeColor=inherit;overflow=hidden;fillColor=none;top=0;left=0;bottom=0;right=0;pointerEvents=1;fontSize=13;align=left;" vertex="1" parent="gQomMeaBvaKWh9qNt1xV-132">
          <mxGeometry x="87" width="113" height="40" as="geometry">
            <mxRectangle width="113" height="40" as="alternateBounds" />
          </mxGeometry>
        </mxCell>
        <mxCell id="gQomMeaBvaKWh9qNt1xV-135" value="Lookup" style="shape=partialRectangle;html=1;whiteSpace=wrap;connectable=0;strokeColor=inherit;overflow=hidden;fillColor=none;top=0;left=0;bottom=0;right=0;pointerEvents=1;fontSize=16;" vertex="1" parent="gQomMeaBvaKWh9qNt1xV-132">
          <mxGeometry x="200" width="200" height="40" as="geometry">
            <mxRectangle width="200" height="40" as="alternateBounds" />
          </mxGeometry>
        </mxCell>
        <mxCell id="gQomMeaBvaKWh9qNt1xV-56" value="" style="shape=tableRow;horizontal=0;startSize=0;swimlaneHead=0;swimlaneBody=0;strokeColor=inherit;top=0;left=0;bottom=0;right=0;collapsible=0;dropTarget=0;fillColor=none;points=[[0,0.5],[1,0.5]];portConstraint=eastwest;fontSize=16;" vertex="1" parent="gQomMeaBvaKWh9qNt1xV-3">
          <mxGeometry y="120" width="400.0000000000009" height="40" as="geometry" />
        </mxCell>
        <mxCell id="gQomMeaBvaKWh9qNt1xV-57" value="FK" style="shape=partialRectangle;html=1;whiteSpace=wrap;connectable=0;strokeColor=inherit;overflow=hidden;fillColor=none;top=0;left=0;bottom=0;right=0;pointerEvents=1;fontSize=16;" vertex="1" parent="gQomMeaBvaKWh9qNt1xV-56">
          <mxGeometry width="87" height="40" as="geometry">
            <mxRectangle width="87" height="40" as="alternateBounds" />
          </mxGeometry>
        </mxCell>
        <mxCell id="gQomMeaBvaKWh9qNt1xV-58" value="&lt;span style=&quot;font-family: Verdana; font-size: 13px; text-wrap-mode: nowrap;&quot;&gt;FromGrade&lt;/span&gt;" style="shape=partialRectangle;html=1;whiteSpace=wrap;connectable=0;strokeColor=inherit;overflow=hidden;fillColor=none;top=0;left=0;bottom=0;right=0;pointerEvents=1;fontSize=13;align=left;" vertex="1" parent="gQomMeaBvaKWh9qNt1xV-56">
          <mxGeometry x="87" width="113" height="40" as="geometry">
            <mxRectangle width="113" height="40" as="alternateBounds" />
          </mxGeometry>
        </mxCell>
        <mxCell id="gQomMeaBvaKWh9qNt1xV-59" value="Lookup" style="shape=partialRectangle;html=1;whiteSpace=wrap;connectable=0;strokeColor=inherit;overflow=hidden;fillColor=none;top=0;left=0;bottom=0;right=0;pointerEvents=1;fontSize=16;" vertex="1" parent="gQomMeaBvaKWh9qNt1xV-56">
          <mxGeometry x="200" width="200" height="40" as="geometry">
            <mxRectangle width="200" height="40" as="alternateBounds" />
          </mxGeometry>
        </mxCell>
        <mxCell id="gQomMeaBvaKWh9qNt1xV-60" value="" style="shape=tableRow;horizontal=0;startSize=0;swimlaneHead=0;swimlaneBody=0;strokeColor=inherit;top=0;left=0;bottom=0;right=0;collapsible=0;dropTarget=0;fillColor=none;points=[[0,0.5],[1,0.5]];portConstraint=eastwest;fontSize=16;" vertex="1" parent="gQomMeaBvaKWh9qNt1xV-3">
          <mxGeometry y="160" width="400.0000000000009" height="40" as="geometry" />
        </mxCell>
        <mxCell id="gQomMeaBvaKWh9qNt1xV-61" value="FK" style="shape=partialRectangle;html=1;whiteSpace=wrap;connectable=0;strokeColor=inherit;overflow=hidden;fillColor=none;top=0;left=0;bottom=0;right=0;pointerEvents=1;fontSize=16;" vertex="1" parent="gQomMeaBvaKWh9qNt1xV-60">
          <mxGeometry width="87" height="40" as="geometry">
            <mxRectangle width="87" height="40" as="alternateBounds" />
          </mxGeometry>
        </mxCell>
        <mxCell id="gQomMeaBvaKWh9qNt1xV-62" value="&lt;span style=&quot;font-family: Verdana; font-size: 13px; text-wrap-mode: nowrap;&quot;&gt;ToGrade&lt;/span&gt;" style="shape=partialRectangle;html=1;whiteSpace=wrap;connectable=0;strokeColor=inherit;overflow=hidden;fillColor=none;top=0;left=0;bottom=0;right=0;pointerEvents=1;fontSize=13;align=left;" vertex="1" parent="gQomMeaBvaKWh9qNt1xV-60">
          <mxGeometry x="87" width="113" height="40" as="geometry">
            <mxRectangle width="113" height="40" as="alternateBounds" />
          </mxGeometry>
        </mxCell>
        <mxCell id="gQomMeaBvaKWh9qNt1xV-63" value="&#xa;&lt;span style=&quot;color: rgb(0, 0, 0); font-family: Helvetica; font-size: 16px; font-style: normal; font-variant-ligatures: normal; font-variant-caps: normal; font-weight: 400; letter-spacing: normal; orphans: 2; text-align: center; text-indent: 0px; text-transform: none; widows: 2; word-spacing: 0px; -webkit-text-stroke-width: 0px; white-space: normal; background-color: rgb(251, 251, 251); text-decoration-thickness: initial; text-decoration-style: initial; text-decoration-color: initial; display: inline !important; float: none;&quot;&gt;Lookup&lt;/span&gt;&#xa;&#xa;" style="shape=partialRectangle;html=1;whiteSpace=wrap;connectable=0;strokeColor=inherit;overflow=hidden;fillColor=none;top=0;left=0;bottom=0;right=0;pointerEvents=1;fontSize=16;" vertex="1" parent="gQomMeaBvaKWh9qNt1xV-60">
          <mxGeometry x="200" width="200" height="40" as="geometry">
            <mxRectangle width="200" height="40" as="alternateBounds" />
          </mxGeometry>
        </mxCell>
        <mxCell id="gQomMeaBvaKWh9qNt1xV-120" value="" style="shape=tableRow;horizontal=0;startSize=0;swimlaneHead=0;swimlaneBody=0;strokeColor=inherit;top=0;left=0;bottom=0;right=0;collapsible=0;dropTarget=0;fillColor=none;points=[[0,0.5],[1,0.5]];portConstraint=eastwest;fontSize=16;" vertex="1" parent="gQomMeaBvaKWh9qNt1xV-3">
          <mxGeometry y="200" width="400.0000000000009" height="40" as="geometry" />
        </mxCell>
        <mxCell id="gQomMeaBvaKWh9qNt1xV-121" value="" style="shape=partialRectangle;html=1;whiteSpace=wrap;connectable=0;strokeColor=inherit;overflow=hidden;fillColor=none;top=0;left=0;bottom=0;right=0;pointerEvents=1;fontSize=16;align=left;" vertex="1" parent="gQomMeaBvaKWh9qNt1xV-120">
          <mxGeometry width="87" height="40" as="geometry">
            <mxRectangle width="87" height="40" as="alternateBounds" />
          </mxGeometry>
        </mxCell>
        <mxCell id="gQomMeaBvaKWh9qNt1xV-122" value="Name" style="shape=partialRectangle;html=1;whiteSpace=wrap;connectable=0;strokeColor=inherit;overflow=hidden;fillColor=none;top=0;left=0;bottom=0;right=0;pointerEvents=1;fontSize=13;align=left;" vertex="1" parent="gQomMeaBvaKWh9qNt1xV-120">
          <mxGeometry x="87" width="113" height="40" as="geometry">
            <mxRectangle width="113" height="40" as="alternateBounds" />
          </mxGeometry>
        </mxCell>
        <mxCell id="gQomMeaBvaKWh9qNt1xV-123" value="" style="shape=partialRectangle;html=1;whiteSpace=wrap;connectable=0;strokeColor=inherit;overflow=hidden;fillColor=none;top=0;left=0;bottom=0;right=0;pointerEvents=1;fontSize=16;" vertex="1" parent="gQomMeaBvaKWh9qNt1xV-120">
          <mxGeometry x="200" width="200" height="40" as="geometry">
            <mxRectangle width="200" height="40" as="alternateBounds" />
          </mxGeometry>
        </mxCell>
        <mxCell id="gQomMeaBvaKWh9qNt1xV-36" value="" style="shape=tableRow;horizontal=0;startSize=0;swimlaneHead=0;swimlaneBody=0;strokeColor=inherit;top=0;left=0;bottom=0;right=0;collapsible=0;dropTarget=0;fillColor=none;points=[[0,0.5],[1,0.5]];portConstraint=eastwest;fontSize=16;" vertex="1" parent="gQomMeaBvaKWh9qNt1xV-3">
          <mxGeometry y="240" width="400.0000000000009" height="40" as="geometry" />
        </mxCell>
        <mxCell id="gQomMeaBvaKWh9qNt1xV-37" value="" style="shape=partialRectangle;html=1;whiteSpace=wrap;connectable=0;strokeColor=inherit;overflow=hidden;fillColor=none;top=0;left=0;bottom=0;right=0;pointerEvents=1;fontSize=16;" vertex="1" parent="gQomMeaBvaKWh9qNt1xV-36">
          <mxGeometry width="87" height="40" as="geometry">
            <mxRectangle width="87" height="40" as="alternateBounds" />
          </mxGeometry>
        </mxCell>
        <mxCell id="gQomMeaBvaKWh9qNt1xV-38" value="&lt;span style=&quot;font-family: Verdana; font-size: 13px; text-wrap-mode: nowrap;&quot;&gt;Phone&lt;/span&gt;" style="shape=partialRectangle;html=1;whiteSpace=wrap;connectable=0;strokeColor=inherit;overflow=hidden;fillColor=none;top=0;left=0;bottom=0;right=0;pointerEvents=1;fontSize=13;align=left;" vertex="1" parent="gQomMeaBvaKWh9qNt1xV-36">
          <mxGeometry x="87" width="113" height="40" as="geometry">
            <mxRectangle width="113" height="40" as="alternateBounds" />
          </mxGeometry>
        </mxCell>
        <mxCell id="gQomMeaBvaKWh9qNt1xV-39" value="Single line of text" style="shape=partialRectangle;html=1;whiteSpace=wrap;connectable=0;strokeColor=inherit;overflow=hidden;fillColor=none;top=0;left=0;bottom=0;right=0;pointerEvents=1;fontSize=16;" vertex="1" parent="gQomMeaBvaKWh9qNt1xV-36">
          <mxGeometry x="200" width="200" height="40" as="geometry">
            <mxRectangle width="200" height="40" as="alternateBounds" />
          </mxGeometry>
        </mxCell>
        <mxCell id="gQomMeaBvaKWh9qNt1xV-40" value="" style="shape=tableRow;horizontal=0;startSize=0;swimlaneHead=0;swimlaneBody=0;strokeColor=inherit;top=0;left=0;bottom=0;right=0;collapsible=0;dropTarget=0;fillColor=none;points=[[0,0.5],[1,0.5]];portConstraint=eastwest;fontSize=16;" vertex="1" parent="gQomMeaBvaKWh9qNt1xV-3">
          <mxGeometry y="280" width="400.0000000000009" height="40" as="geometry" />
        </mxCell>
        <mxCell id="gQomMeaBvaKWh9qNt1xV-41" value="" style="shape=partialRectangle;html=1;whiteSpace=wrap;connectable=0;strokeColor=inherit;overflow=hidden;fillColor=none;top=0;left=0;bottom=0;right=0;pointerEvents=1;fontSize=16;" vertex="1" parent="gQomMeaBvaKWh9qNt1xV-40">
          <mxGeometry width="87" height="40" as="geometry">
            <mxRectangle width="87" height="40" as="alternateBounds" />
          </mxGeometry>
        </mxCell>
        <mxCell id="gQomMeaBvaKWh9qNt1xV-42" value="&lt;table style=&quot;font-family: Verdana; font-size: 13px; text-wrap-mode: nowrap; width: 233.562px;&quot; cellpadding=&quot;2&quot; cellspacing=&quot;0&quot;&gt;&lt;tbody style=&quot;font-size: 13px;&quot;&gt;&lt;tr style=&quot;font-size: 13px;&quot;&gt;&lt;td style=&quot;font-size: 13px;&quot;&gt;&lt;table style=&quot;font-size: 13px; width: 210px;&quot; cellpadding=&quot;2&quot; cellspacing=&quot;0&quot;&gt;&lt;tbody style=&quot;font-size: 13px;&quot;&gt;&lt;tr style=&quot;font-size: 13px;&quot;&gt;&lt;td style=&quot;font-size: 13px;&quot;&gt;ZipCode&lt;/td&gt;&lt;/tr&gt;&lt;/tbody&gt;&lt;/table&gt;&lt;/td&gt;&lt;/tr&gt;&lt;/tbody&gt;&lt;/table&gt;" style="shape=partialRectangle;html=1;whiteSpace=wrap;connectable=0;strokeColor=inherit;overflow=hidden;fillColor=none;top=0;left=0;bottom=0;right=0;pointerEvents=1;fontSize=13;align=left;" vertex="1" parent="gQomMeaBvaKWh9qNt1xV-40">
          <mxGeometry x="87" width="113" height="40" as="geometry">
            <mxRectangle width="113" height="40" as="alternateBounds" />
          </mxGeometry>
        </mxCell>
        <mxCell id="gQomMeaBvaKWh9qNt1xV-43" value="Number" style="shape=partialRectangle;html=1;whiteSpace=wrap;connectable=0;strokeColor=inherit;overflow=hidden;fillColor=none;top=0;left=0;bottom=0;right=0;pointerEvents=1;fontSize=16;" vertex="1" parent="gQomMeaBvaKWh9qNt1xV-40">
          <mxGeometry x="200" width="200" height="40" as="geometry">
            <mxRectangle width="200" height="40" as="alternateBounds" />
          </mxGeometry>
        </mxCell>
        <mxCell id="gQomMeaBvaKWh9qNt1xV-12" value="" style="shape=tableRow;horizontal=0;startSize=0;swimlaneHead=0;swimlaneBody=0;strokeColor=inherit;top=0;left=0;bottom=0;right=0;collapsible=0;dropTarget=0;fillColor=none;points=[[0,0.5],[1,0.5]];portConstraint=eastwest;fontSize=16;" vertex="1" parent="gQomMeaBvaKWh9qNt1xV-3">
          <mxGeometry y="320" width="400.0000000000009" height="40" as="geometry" />
        </mxCell>
        <mxCell id="gQomMeaBvaKWh9qNt1xV-13" value="" style="shape=partialRectangle;html=1;whiteSpace=wrap;connectable=0;strokeColor=inherit;overflow=hidden;fillColor=none;top=0;left=0;bottom=0;right=0;pointerEvents=1;fontSize=16;" vertex="1" parent="gQomMeaBvaKWh9qNt1xV-12">
          <mxGeometry width="87" height="40" as="geometry">
            <mxRectangle width="87" height="40" as="alternateBounds" />
          </mxGeometry>
        </mxCell>
        <mxCell id="gQomMeaBvaKWh9qNt1xV-14" value="&lt;span style=&quot;font-family: Verdana; font-size: 13px; text-wrap-mode: nowrap;&quot;&gt;LogoURL&lt;/span&gt;" style="shape=partialRectangle;html=1;whiteSpace=wrap;connectable=0;strokeColor=inherit;overflow=hidden;fillColor=none;top=0;left=0;bottom=0;right=0;pointerEvents=1;fontSize=13;align=left;" vertex="1" parent="gQomMeaBvaKWh9qNt1xV-12">
          <mxGeometry x="87" width="113" height="40" as="geometry">
            <mxRectangle width="113" height="40" as="alternateBounds" />
          </mxGeometry>
        </mxCell>
        <mxCell id="gQomMeaBvaKWh9qNt1xV-15" value="Multiple line of text" style="shape=partialRectangle;html=1;whiteSpace=wrap;connectable=0;strokeColor=inherit;overflow=hidden;fillColor=none;top=0;left=0;bottom=0;right=0;pointerEvents=1;fontSize=16;" vertex="1" parent="gQomMeaBvaKWh9qNt1xV-12">
          <mxGeometry x="200" width="200" height="40" as="geometry">
            <mxRectangle width="200" height="40" as="alternateBounds" />
          </mxGeometry>
        </mxCell>
        <mxCell id="gQomMeaBvaKWh9qNt1xV-48" value="" style="shape=tableRow;horizontal=0;startSize=0;swimlaneHead=0;swimlaneBody=0;strokeColor=inherit;top=0;left=0;bottom=0;right=0;collapsible=0;dropTarget=0;fillColor=none;points=[[0,0.5],[1,0.5]];portConstraint=eastwest;fontSize=16;" vertex="1" parent="gQomMeaBvaKWh9qNt1xV-3">
          <mxGeometry y="360" width="400.0000000000009" height="40" as="geometry" />
        </mxCell>
        <mxCell id="gQomMeaBvaKWh9qNt1xV-49" value="" style="shape=partialRectangle;html=1;whiteSpace=wrap;connectable=0;strokeColor=inherit;overflow=hidden;fillColor=none;top=0;left=0;bottom=0;right=0;pointerEvents=1;fontSize=16;" vertex="1" parent="gQomMeaBvaKWh9qNt1xV-48">
          <mxGeometry width="87" height="40" as="geometry">
            <mxRectangle width="87" height="40" as="alternateBounds" />
          </mxGeometry>
        </mxCell>
        <mxCell id="gQomMeaBvaKWh9qNt1xV-50" value="&lt;span style=&quot;font-family: Verdana; font-size: 13px; text-wrap-mode: nowrap;&quot;&gt;StateCode&lt;/span&gt;" style="shape=partialRectangle;html=1;whiteSpace=wrap;connectable=0;strokeColor=inherit;overflow=hidden;fillColor=none;top=0;left=0;bottom=0;right=0;pointerEvents=1;fontSize=13;align=left;" vertex="1" parent="gQomMeaBvaKWh9qNt1xV-48">
          <mxGeometry x="87" width="113" height="40" as="geometry">
            <mxRectangle width="113" height="40" as="alternateBounds" />
          </mxGeometry>
        </mxCell>
        <mxCell id="gQomMeaBvaKWh9qNt1xV-51" value="Single line of text" style="shape=partialRectangle;html=1;whiteSpace=wrap;connectable=0;strokeColor=inherit;overflow=hidden;fillColor=none;top=0;left=0;bottom=0;right=0;pointerEvents=1;fontSize=16;" vertex="1" parent="gQomMeaBvaKWh9qNt1xV-48">
          <mxGeometry x="200" width="200" height="40" as="geometry">
            <mxRectangle width="200" height="40" as="alternateBounds" />
          </mxGeometry>
        </mxCell>
        <mxCell id="gQomMeaBvaKWh9qNt1xV-52" value="" style="shape=tableRow;horizontal=0;startSize=0;swimlaneHead=0;swimlaneBody=0;strokeColor=inherit;top=0;left=0;bottom=0;right=0;collapsible=0;dropTarget=0;fillColor=none;points=[[0,0.5],[1,0.5]];portConstraint=eastwest;fontSize=16;" vertex="1" parent="gQomMeaBvaKWh9qNt1xV-3">
          <mxGeometry y="400" width="400.0000000000009" height="40" as="geometry" />
        </mxCell>
        <mxCell id="gQomMeaBvaKWh9qNt1xV-53" value="" style="shape=partialRectangle;html=1;whiteSpace=wrap;connectable=0;strokeColor=inherit;overflow=hidden;fillColor=none;top=0;left=0;bottom=0;right=0;pointerEvents=1;fontSize=16;" vertex="1" parent="gQomMeaBvaKWh9qNt1xV-52">
          <mxGeometry width="87" height="40" as="geometry">
            <mxRectangle width="87" height="40" as="alternateBounds" />
          </mxGeometry>
        </mxCell>
        <mxCell id="gQomMeaBvaKWh9qNt1xV-54" value="&lt;span style=&quot;font-family: Verdana; font-size: 13px; text-wrap-mode: nowrap;&quot;&gt;SISCode&lt;/span&gt;" style="shape=partialRectangle;html=1;whiteSpace=wrap;connectable=0;strokeColor=inherit;overflow=hidden;fillColor=none;top=0;left=0;bottom=0;right=0;pointerEvents=1;fontSize=13;align=left;" vertex="1" parent="gQomMeaBvaKWh9qNt1xV-52">
          <mxGeometry x="87" width="113" height="40" as="geometry">
            <mxRectangle width="113" height="40" as="alternateBounds" />
          </mxGeometry>
        </mxCell>
        <mxCell id="gQomMeaBvaKWh9qNt1xV-55" value="Single line of text" style="shape=partialRectangle;html=1;whiteSpace=wrap;connectable=0;strokeColor=inherit;overflow=hidden;fillColor=none;top=0;left=0;bottom=0;right=0;pointerEvents=1;fontSize=16;" vertex="1" parent="gQomMeaBvaKWh9qNt1xV-52">
          <mxGeometry x="200" width="200" height="40" as="geometry">
            <mxRectangle width="200" height="40" as="alternateBounds" />
          </mxGeometry>
        </mxCell>
        <mxCell id="gQomMeaBvaKWh9qNt1xV-79" value="GradeLevel" style="shape=table;startSize=40;container=1;collapsible=0;childLayout=tableLayout;strokeColor=#6c8ebf;fontSize=16;fontFamily=Helvetica;align=center;fontStyle=1;fillColor=#dae8fc;gradientColor=none;swimlaneFillColor=default;" vertex="1" parent="1">
          <mxGeometry x="-120" y="640" width="280" height="120" as="geometry" />
        </mxCell>
        <mxCell id="gQomMeaBvaKWh9qNt1xV-80" value="" style="shape=tableRow;horizontal=0;startSize=0;swimlaneHead=0;swimlaneBody=0;strokeColor=inherit;top=0;left=0;bottom=0;right=0;collapsible=0;dropTarget=0;fillColor=none;points=[[0,0.5],[1,0.5]];portConstraint=eastwest;fontSize=16;" vertex="1" parent="gQomMeaBvaKWh9qNt1xV-79">
          <mxGeometry y="40" width="280" height="40" as="geometry" />
        </mxCell>
        <mxCell id="gQomMeaBvaKWh9qNt1xV-81" value="PK" style="shape=partialRectangle;html=1;whiteSpace=wrap;connectable=0;strokeColor=inherit;overflow=hidden;fillColor=none;top=0;left=0;bottom=0;right=0;pointerEvents=1;fontSize=16;align=left;" vertex="1" parent="gQomMeaBvaKWh9qNt1xV-80">
          <mxGeometry width="90" height="40" as="geometry">
            <mxRectangle width="90" height="40" as="alternateBounds" />
          </mxGeometry>
        </mxCell>
        <mxCell id="gQomMeaBvaKWh9qNt1xV-82" value="GradeLevelID" style="shape=partialRectangle;html=1;whiteSpace=wrap;connectable=0;strokeColor=inherit;overflow=hidden;fillColor=none;top=0;left=0;bottom=0;right=0;pointerEvents=1;fontSize=13;align=left;" vertex="1" parent="gQomMeaBvaKWh9qNt1xV-80">
          <mxGeometry x="90" width="90" height="40" as="geometry">
            <mxRectangle width="90" height="40" as="alternateBounds" />
          </mxGeometry>
        </mxCell>
        <mxCell id="gQomMeaBvaKWh9qNt1xV-83" value="" style="shape=partialRectangle;html=1;whiteSpace=wrap;connectable=0;strokeColor=inherit;overflow=hidden;fillColor=none;top=0;left=0;bottom=0;right=0;pointerEvents=1;fontSize=16;" vertex="1" parent="gQomMeaBvaKWh9qNt1xV-80">
          <mxGeometry x="180" width="100" height="40" as="geometry">
            <mxRectangle width="100" height="40" as="alternateBounds" />
          </mxGeometry>
        </mxCell>
        <mxCell id="gQomMeaBvaKWh9qNt1xV-84" value="" style="shape=tableRow;horizontal=0;startSize=0;swimlaneHead=0;swimlaneBody=0;strokeColor=inherit;top=0;left=0;bottom=0;right=0;collapsible=0;dropTarget=0;fillColor=none;points=[[0,0.5],[1,0.5]];portConstraint=eastwest;fontSize=16;" vertex="1" parent="gQomMeaBvaKWh9qNt1xV-79">
          <mxGeometry y="80" width="280" height="40" as="geometry" />
        </mxCell>
        <mxCell id="gQomMeaBvaKWh9qNt1xV-85" value="" style="shape=partialRectangle;html=1;whiteSpace=wrap;connectable=0;strokeColor=inherit;overflow=hidden;fillColor=none;top=0;left=0;bottom=0;right=0;pointerEvents=1;fontSize=16;" vertex="1" parent="gQomMeaBvaKWh9qNt1xV-84">
          <mxGeometry width="90" height="40" as="geometry">
            <mxRectangle width="90" height="40" as="alternateBounds" />
          </mxGeometry>
        </mxCell>
        <mxCell id="gQomMeaBvaKWh9qNt1xV-86" value="Name" style="shape=partialRectangle;html=1;whiteSpace=wrap;connectable=0;strokeColor=inherit;overflow=hidden;fillColor=none;top=0;left=0;bottom=0;right=0;pointerEvents=1;fontSize=13;align=left;" vertex="1" parent="gQomMeaBvaKWh9qNt1xV-84">
          <mxGeometry x="90" width="90" height="40" as="geometry">
            <mxRectangle width="90" height="40" as="alternateBounds" />
          </mxGeometry>
        </mxCell>
        <mxCell id="gQomMeaBvaKWh9qNt1xV-87" value="P4-12" style="shape=partialRectangle;html=1;whiteSpace=wrap;connectable=0;strokeColor=inherit;overflow=hidden;fillColor=none;top=0;left=0;bottom=0;right=0;pointerEvents=1;fontSize=16;" vertex="1" parent="gQomMeaBvaKWh9qNt1xV-84">
          <mxGeometry x="180" width="100" height="40" as="geometry">
            <mxRectangle width="100" height="40" as="alternateBounds" />
          </mxGeometry>
        </mxCell>
        <mxCell id="gQomMeaBvaKWh9qNt1xV-137" value="SiteCategory" style="shape=table;startSize=40;container=1;collapsible=0;childLayout=tableLayout;strokeColor=#6c8ebf;fontSize=16;fontFamily=Helvetica;align=center;fontStyle=1;fillColor=#dae8fc;gradientColor=none;swimlaneFillColor=default;" vertex="1" parent="1">
          <mxGeometry x="-120" y="480" width="280" height="120" as="geometry" />
        </mxCell>
        <mxCell id="gQomMeaBvaKWh9qNt1xV-138" value="" style="shape=tableRow;horizontal=0;startSize=0;swimlaneHead=0;swimlaneBody=0;strokeColor=inherit;top=0;left=0;bottom=0;right=0;collapsible=0;dropTarget=0;fillColor=none;points=[[0,0.5],[1,0.5]];portConstraint=eastwest;fontSize=16;" vertex="1" parent="gQomMeaBvaKWh9qNt1xV-137">
          <mxGeometry y="40" width="280" height="40" as="geometry" />
        </mxCell>
        <mxCell id="gQomMeaBvaKWh9qNt1xV-139" value="PK" style="shape=partialRectangle;html=1;whiteSpace=wrap;connectable=0;strokeColor=inherit;overflow=hidden;fillColor=none;top=0;left=0;bottom=0;right=0;pointerEvents=1;fontSize=16;align=left;" vertex="1" parent="gQomMeaBvaKWh9qNt1xV-138">
          <mxGeometry width="90" height="40" as="geometry">
            <mxRectangle width="90" height="40" as="alternateBounds" />
          </mxGeometry>
        </mxCell>
        <mxCell id="gQomMeaBvaKWh9qNt1xV-140" value="SiteCategoryID" style="shape=partialRectangle;html=1;whiteSpace=wrap;connectable=0;strokeColor=inherit;overflow=hidden;fillColor=none;top=0;left=0;bottom=0;right=0;pointerEvents=1;fontSize=13;align=left;" vertex="1" parent="gQomMeaBvaKWh9qNt1xV-138">
          <mxGeometry x="90" width="90" height="40" as="geometry">
            <mxRectangle width="90" height="40" as="alternateBounds" />
          </mxGeometry>
        </mxCell>
        <mxCell id="gQomMeaBvaKWh9qNt1xV-141" value="" style="shape=partialRectangle;html=1;whiteSpace=wrap;connectable=0;strokeColor=inherit;overflow=hidden;fillColor=none;top=0;left=0;bottom=0;right=0;pointerEvents=1;fontSize=16;" vertex="1" parent="gQomMeaBvaKWh9qNt1xV-138">
          <mxGeometry x="180" width="100" height="40" as="geometry">
            <mxRectangle width="100" height="40" as="alternateBounds" />
          </mxGeometry>
        </mxCell>
        <mxCell id="gQomMeaBvaKWh9qNt1xV-142" value="" style="shape=tableRow;horizontal=0;startSize=0;swimlaneHead=0;swimlaneBody=0;strokeColor=inherit;top=0;left=0;bottom=0;right=0;collapsible=0;dropTarget=0;fillColor=none;points=[[0,0.5],[1,0.5]];portConstraint=eastwest;fontSize=16;" vertex="1" parent="gQomMeaBvaKWh9qNt1xV-137">
          <mxGeometry y="80" width="280" height="40" as="geometry" />
        </mxCell>
        <mxCell id="gQomMeaBvaKWh9qNt1xV-143" value="" style="shape=partialRectangle;html=1;whiteSpace=wrap;connectable=0;strokeColor=inherit;overflow=hidden;fillColor=none;top=0;left=0;bottom=0;right=0;pointerEvents=1;fontSize=16;" vertex="1" parent="gQomMeaBvaKWh9qNt1xV-142">
          <mxGeometry width="90" height="40" as="geometry">
            <mxRectangle width="90" height="40" as="alternateBounds" />
          </mxGeometry>
        </mxCell>
        <mxCell id="gQomMeaBvaKWh9qNt1xV-144" value="Name" style="shape=partialRectangle;html=1;whiteSpace=wrap;connectable=0;strokeColor=inherit;overflow=hidden;fillColor=none;top=0;left=0;bottom=0;right=0;pointerEvents=1;fontSize=13;align=left;" vertex="1" parent="gQomMeaBvaKWh9qNt1xV-142">
          <mxGeometry x="90" width="90" height="40" as="geometry">
            <mxRectangle width="90" height="40" as="alternateBounds" />
          </mxGeometry>
        </mxCell>
        <mxCell id="gQomMeaBvaKWh9qNt1xV-145" value="EL, MS, HS" style="shape=partialRectangle;html=1;whiteSpace=wrap;connectable=0;strokeColor=inherit;overflow=hidden;fillColor=none;top=0;left=0;bottom=0;right=0;pointerEvents=1;fontSize=16;" vertex="1" parent="gQomMeaBvaKWh9qNt1xV-142">
          <mxGeometry x="180" width="100" height="40" as="geometry">
            <mxRectangle width="100" height="40" as="alternateBounds" />
          </mxGeometry>
        </mxCell>
        <mxCell id="gQomMeaBvaKWh9qNt1xV-147" style="edgeStyle=orthogonalEdgeStyle;rounded=0;orthogonalLoop=1;jettySize=auto;html=1;entryX=0;entryY=0.5;entryDx=0;entryDy=0;" edge="1" parent="1" source="gQomMeaBvaKWh9qNt1xV-132" target="gQomMeaBvaKWh9qNt1xV-138">
          <mxGeometry relative="1" as="geometry">
            <Array as="points">
              <mxPoint x="-180" y="110" />
              <mxPoint x="-180" y="510" />
            </Array>
          </mxGeometry>
        </mxCell>
        <mxCell id="gQomMeaBvaKWh9qNt1xV-152" style="edgeStyle=orthogonalEdgeStyle;rounded=0;orthogonalLoop=1;jettySize=auto;html=1;entryX=0;entryY=0.5;entryDx=0;entryDy=0;" edge="1" parent="1" source="gQomMeaBvaKWh9qNt1xV-56" target="gQomMeaBvaKWh9qNt1xV-80">
          <mxGeometry relative="1" as="geometry">
            <Array as="points">
              <mxPoint x="-160" y="150" />
              <mxPoint x="-160" y="640" />
            </Array>
          </mxGeometry>
        </mxCell>
        <mxCell id="gQomMeaBvaKWh9qNt1xV-155" style="edgeStyle=orthogonalEdgeStyle;rounded=0;orthogonalLoop=1;jettySize=auto;html=1;entryX=0;entryY=0.5;entryDx=0;entryDy=0;" edge="1" parent="1" source="gQomMeaBvaKWh9qNt1xV-60" target="gQomMeaBvaKWh9qNt1xV-80">
          <mxGeometry relative="1" as="geometry">
            <Array as="points">
              <mxPoint x="-140" y="190" />
              <mxPoint x="-140" y="640" />
            </Array>
          </mxGeometry>
        </mxCell>
        <mxCell id="gQomMeaBvaKWh9qNt1xV-157" value="Student" style="shape=table;startSize=40;container=1;collapsible=0;childLayout=tableLayout;strokeColor=#6c8ebf;fontSize=16;fontFamily=Helvetica;align=center;fontStyle=1;fillColor=#dae8fc;gradientColor=none;swimlaneFillColor=default;" vertex="1" parent="1">
          <mxGeometry x="-760" y="480" width="400.0000000000009" height="440" as="geometry" />
        </mxCell>
        <mxCell id="gQomMeaBvaKWh9qNt1xV-158" value="" style="shape=tableRow;horizontal=0;startSize=0;swimlaneHead=0;swimlaneBody=0;strokeColor=inherit;top=0;left=0;bottom=0;right=0;collapsible=0;dropTarget=0;fillColor=none;points=[[0,0.5],[1,0.5]];portConstraint=eastwest;fontSize=16;" vertex="1" parent="gQomMeaBvaKWh9qNt1xV-157">
          <mxGeometry y="40" width="400.0000000000009" height="40" as="geometry" />
        </mxCell>
        <mxCell id="gQomMeaBvaKWh9qNt1xV-159" value="PK" style="shape=partialRectangle;html=1;whiteSpace=wrap;connectable=0;strokeColor=inherit;overflow=hidden;fillColor=none;top=0;left=0;bottom=0;right=0;pointerEvents=1;fontSize=16;align=center;" vertex="1" parent="gQomMeaBvaKWh9qNt1xV-158">
          <mxGeometry width="87" height="40" as="geometry">
            <mxRectangle width="87" height="40" as="alternateBounds" />
          </mxGeometry>
        </mxCell>
        <mxCell id="gQomMeaBvaKWh9qNt1xV-160" value="StudentID" style="shape=partialRectangle;html=1;whiteSpace=wrap;connectable=0;strokeColor=inherit;overflow=hidden;fillColor=none;top=0;left=0;bottom=0;right=0;pointerEvents=1;fontSize=13;align=left;" vertex="1" parent="gQomMeaBvaKWh9qNt1xV-158">
          <mxGeometry x="87" width="113" height="40" as="geometry">
            <mxRectangle width="113" height="40" as="alternateBounds" />
          </mxGeometry>
        </mxCell>
        <mxCell id="gQomMeaBvaKWh9qNt1xV-161" value="" style="shape=partialRectangle;html=1;whiteSpace=wrap;connectable=0;strokeColor=inherit;overflow=hidden;fillColor=none;top=0;left=0;bottom=0;right=0;pointerEvents=1;fontSize=16;" vertex="1" parent="gQomMeaBvaKWh9qNt1xV-158">
          <mxGeometry x="200" width="200" height="40" as="geometry">
            <mxRectangle width="200" height="40" as="alternateBounds" />
          </mxGeometry>
        </mxCell>
        <mxCell id="gQomMeaBvaKWh9qNt1xV-162" value="" style="shape=tableRow;horizontal=0;startSize=0;swimlaneHead=0;swimlaneBody=0;strokeColor=inherit;top=0;left=0;bottom=0;right=0;collapsible=0;dropTarget=0;fillColor=none;points=[[0,0.5],[1,0.5]];portConstraint=eastwest;fontSize=16;" vertex="1" parent="gQomMeaBvaKWh9qNt1xV-157">
          <mxGeometry y="80" width="400.0000000000009" height="40" as="geometry" />
        </mxCell>
        <mxCell id="gQomMeaBvaKWh9qNt1xV-163" value="FK" style="shape=partialRectangle;html=1;whiteSpace=wrap;connectable=0;strokeColor=inherit;overflow=hidden;fillColor=none;top=0;left=0;bottom=0;right=0;pointerEvents=1;fontSize=16;" vertex="1" parent="gQomMeaBvaKWh9qNt1xV-162">
          <mxGeometry width="87" height="40" as="geometry">
            <mxRectangle width="87" height="40" as="alternateBounds" />
          </mxGeometry>
        </mxCell>
        <mxCell id="gQomMeaBvaKWh9qNt1xV-164" value="&lt;span style=&quot;font-family: Verdana; text-wrap-mode: nowrap;&quot;&gt;Student_ID&lt;/span&gt;" style="shape=partialRectangle;html=1;whiteSpace=wrap;connectable=0;strokeColor=inherit;overflow=hidden;fillColor=none;top=0;left=0;bottom=0;right=0;pointerEvents=1;fontSize=13;align=left;" vertex="1" parent="gQomMeaBvaKWh9qNt1xV-162">
          <mxGeometry x="87" width="113" height="40" as="geometry">
            <mxRectangle width="113" height="40" as="alternateBounds" />
          </mxGeometry>
        </mxCell>
        <mxCell id="gQomMeaBvaKWh9qNt1xV-165" value="Single line of text" style="shape=partialRectangle;html=1;whiteSpace=wrap;connectable=0;strokeColor=inherit;overflow=hidden;fillColor=none;top=0;left=0;bottom=0;right=0;pointerEvents=1;fontSize=16;" vertex="1" parent="gQomMeaBvaKWh9qNt1xV-162">
          <mxGeometry x="200" width="200" height="40" as="geometry">
            <mxRectangle width="200" height="40" as="alternateBounds" />
          </mxGeometry>
        </mxCell>
        <mxCell id="gQomMeaBvaKWh9qNt1xV-166" value="" style="shape=tableRow;horizontal=0;startSize=0;swimlaneHead=0;swimlaneBody=0;strokeColor=inherit;top=0;left=0;bottom=0;right=0;collapsible=0;dropTarget=0;fillColor=none;points=[[0,0.5],[1,0.5]];portConstraint=eastwest;fontSize=16;" vertex="1" parent="gQomMeaBvaKWh9qNt1xV-157">
          <mxGeometry y="120" width="400.0000000000009" height="40" as="geometry" />
        </mxCell>
        <mxCell id="gQomMeaBvaKWh9qNt1xV-167" value="FK" style="shape=partialRectangle;html=1;whiteSpace=wrap;connectable=0;strokeColor=inherit;overflow=hidden;fillColor=none;top=0;left=0;bottom=0;right=0;pointerEvents=1;fontSize=16;" vertex="1" parent="gQomMeaBvaKWh9qNt1xV-166">
          <mxGeometry width="87" height="40" as="geometry">
            <mxRectangle width="87" height="40" as="alternateBounds" />
          </mxGeometry>
        </mxCell>
        <mxCell id="gQomMeaBvaKWh9qNt1xV-168" value="&lt;span style=&quot;font-family: Verdana; font-size: 13px; text-wrap-mode: nowrap;&quot;&gt;Last&lt;/span&gt;" style="shape=partialRectangle;html=1;whiteSpace=wrap;connectable=0;strokeColor=inherit;overflow=hidden;fillColor=none;top=0;left=0;bottom=0;right=0;pointerEvents=1;fontSize=13;align=left;" vertex="1" parent="gQomMeaBvaKWh9qNt1xV-166">
          <mxGeometry x="87" width="113" height="40" as="geometry">
            <mxRectangle width="113" height="40" as="alternateBounds" />
          </mxGeometry>
        </mxCell>
        <mxCell id="gQomMeaBvaKWh9qNt1xV-169" value="Single line of text" style="shape=partialRectangle;html=1;whiteSpace=wrap;connectable=0;strokeColor=inherit;overflow=hidden;fillColor=none;top=0;left=0;bottom=0;right=0;pointerEvents=1;fontSize=16;" vertex="1" parent="gQomMeaBvaKWh9qNt1xV-166">
          <mxGeometry x="200" width="200" height="40" as="geometry">
            <mxRectangle width="200" height="40" as="alternateBounds" />
          </mxGeometry>
        </mxCell>
        <mxCell id="gQomMeaBvaKWh9qNt1xV-170" value="" style="shape=tableRow;horizontal=0;startSize=0;swimlaneHead=0;swimlaneBody=0;strokeColor=inherit;top=0;left=0;bottom=0;right=0;collapsible=0;dropTarget=0;fillColor=none;points=[[0,0.5],[1,0.5]];portConstraint=eastwest;fontSize=16;" vertex="1" parent="gQomMeaBvaKWh9qNt1xV-157">
          <mxGeometry y="160" width="400.0000000000009" height="40" as="geometry" />
        </mxCell>
        <mxCell id="gQomMeaBvaKWh9qNt1xV-171" value="FK" style="shape=partialRectangle;html=1;whiteSpace=wrap;connectable=0;strokeColor=inherit;overflow=hidden;fillColor=none;top=0;left=0;bottom=0;right=0;pointerEvents=1;fontSize=16;" vertex="1" parent="gQomMeaBvaKWh9qNt1xV-170">
          <mxGeometry width="87" height="40" as="geometry">
            <mxRectangle width="87" height="40" as="alternateBounds" />
          </mxGeometry>
        </mxCell>
        <mxCell id="gQomMeaBvaKWh9qNt1xV-172" value="&lt;span style=&quot;font-family: Verdana; font-size: 13px; text-wrap-mode: nowrap;&quot;&gt;First&lt;/span&gt;" style="shape=partialRectangle;html=1;whiteSpace=wrap;connectable=0;strokeColor=inherit;overflow=hidden;fillColor=none;top=0;left=0;bottom=0;right=0;pointerEvents=1;fontSize=13;align=left;" vertex="1" parent="gQomMeaBvaKWh9qNt1xV-170">
          <mxGeometry x="87" width="113" height="40" as="geometry">
            <mxRectangle width="113" height="40" as="alternateBounds" />
          </mxGeometry>
        </mxCell>
        <mxCell id="gQomMeaBvaKWh9qNt1xV-173" value="Single line of text" style="shape=partialRectangle;html=1;whiteSpace=wrap;connectable=0;strokeColor=inherit;overflow=hidden;fillColor=none;top=0;left=0;bottom=0;right=0;pointerEvents=1;fontSize=16;" vertex="1" parent="gQomMeaBvaKWh9qNt1xV-170">
          <mxGeometry x="200" width="200" height="40" as="geometry">
            <mxRectangle width="200" height="40" as="alternateBounds" />
          </mxGeometry>
        </mxCell>
        <mxCell id="gQomMeaBvaKWh9qNt1xV-174" value="" style="shape=tableRow;horizontal=0;startSize=0;swimlaneHead=0;swimlaneBody=0;strokeColor=inherit;top=0;left=0;bottom=0;right=0;collapsible=0;dropTarget=0;fillColor=none;points=[[0,0.5],[1,0.5]];portConstraint=eastwest;fontSize=16;" vertex="1" parent="gQomMeaBvaKWh9qNt1xV-157">
          <mxGeometry y="200" width="400.0000000000009" height="40" as="geometry" />
        </mxCell>
        <mxCell id="gQomMeaBvaKWh9qNt1xV-175" value="" style="shape=partialRectangle;html=1;whiteSpace=wrap;connectable=0;strokeColor=inherit;overflow=hidden;fillColor=none;top=0;left=0;bottom=0;right=0;pointerEvents=1;fontSize=16;align=left;" vertex="1" parent="gQomMeaBvaKWh9qNt1xV-174">
          <mxGeometry width="87" height="40" as="geometry">
            <mxRectangle width="87" height="40" as="alternateBounds" />
          </mxGeometry>
        </mxCell>
        <mxCell id="gQomMeaBvaKWh9qNt1xV-176" value="Grade" style="shape=partialRectangle;html=1;whiteSpace=wrap;connectable=0;strokeColor=inherit;overflow=hidden;fillColor=none;top=0;left=0;bottom=0;right=0;pointerEvents=1;fontSize=13;align=left;" vertex="1" parent="gQomMeaBvaKWh9qNt1xV-174">
          <mxGeometry x="87" width="113" height="40" as="geometry">
            <mxRectangle width="113" height="40" as="alternateBounds" />
          </mxGeometry>
        </mxCell>
        <mxCell id="gQomMeaBvaKWh9qNt1xV-177" value="&lt;span style=&quot;font-weight: 700; text-wrap-mode: nowrap;&quot;&gt;GradeLevel&lt;/span&gt;" style="shape=partialRectangle;html=1;whiteSpace=wrap;connectable=0;strokeColor=inherit;overflow=hidden;fillColor=none;top=0;left=0;bottom=0;right=0;pointerEvents=1;fontSize=16;" vertex="1" parent="gQomMeaBvaKWh9qNt1xV-174">
          <mxGeometry x="200" width="200" height="40" as="geometry">
            <mxRectangle width="200" height="40" as="alternateBounds" />
          </mxGeometry>
        </mxCell>
        <mxCell id="gQomMeaBvaKWh9qNt1xV-178" value="" style="shape=tableRow;horizontal=0;startSize=0;swimlaneHead=0;swimlaneBody=0;strokeColor=inherit;top=0;left=0;bottom=0;right=0;collapsible=0;dropTarget=0;fillColor=none;points=[[0,0.5],[1,0.5]];portConstraint=eastwest;fontSize=16;" vertex="1" parent="gQomMeaBvaKWh9qNt1xV-157">
          <mxGeometry y="240" width="400.0000000000009" height="40" as="geometry" />
        </mxCell>
        <mxCell id="gQomMeaBvaKWh9qNt1xV-179" value="" style="shape=partialRectangle;html=1;whiteSpace=wrap;connectable=0;strokeColor=inherit;overflow=hidden;fillColor=none;top=0;left=0;bottom=0;right=0;pointerEvents=1;fontSize=16;" vertex="1" parent="gQomMeaBvaKWh9qNt1xV-178">
          <mxGeometry width="87" height="40" as="geometry">
            <mxRectangle width="87" height="40" as="alternateBounds" />
          </mxGeometry>
        </mxCell>
        <mxCell id="gQomMeaBvaKWh9qNt1xV-180" value="&lt;span style=&quot;font-family: Verdana; font-size: 13px; text-wrap-mode: nowrap;&quot;&gt;Username&lt;/span&gt;" style="shape=partialRectangle;html=1;whiteSpace=wrap;connectable=0;strokeColor=inherit;overflow=hidden;fillColor=none;top=0;left=0;bottom=0;right=0;pointerEvents=1;fontSize=13;align=left;" vertex="1" parent="gQomMeaBvaKWh9qNt1xV-178">
          <mxGeometry x="87" width="113" height="40" as="geometry">
            <mxRectangle width="113" height="40" as="alternateBounds" />
          </mxGeometry>
        </mxCell>
        <mxCell id="gQomMeaBvaKWh9qNt1xV-181" value="Single line of text" style="shape=partialRectangle;html=1;whiteSpace=wrap;connectable=0;strokeColor=inherit;overflow=hidden;fillColor=none;top=0;left=0;bottom=0;right=0;pointerEvents=1;fontSize=16;" vertex="1" parent="gQomMeaBvaKWh9qNt1xV-178">
          <mxGeometry x="200" width="200" height="40" as="geometry">
            <mxRectangle width="200" height="40" as="alternateBounds" />
          </mxGeometry>
        </mxCell>
        <mxCell id="gQomMeaBvaKWh9qNt1xV-182" value="" style="shape=tableRow;horizontal=0;startSize=0;swimlaneHead=0;swimlaneBody=0;strokeColor=inherit;top=0;left=0;bottom=0;right=0;collapsible=0;dropTarget=0;fillColor=none;points=[[0,0.5],[1,0.5]];portConstraint=eastwest;fontSize=16;" vertex="1" parent="gQomMeaBvaKWh9qNt1xV-157">
          <mxGeometry y="280" width="400.0000000000009" height="40" as="geometry" />
        </mxCell>
        <mxCell id="gQomMeaBvaKWh9qNt1xV-183" value="" style="shape=partialRectangle;html=1;whiteSpace=wrap;connectable=0;strokeColor=inherit;overflow=hidden;fillColor=none;top=0;left=0;bottom=0;right=0;pointerEvents=1;fontSize=16;" vertex="1" parent="gQomMeaBvaKWh9qNt1xV-182">
          <mxGeometry width="87" height="40" as="geometry">
            <mxRectangle width="87" height="40" as="alternateBounds" />
          </mxGeometry>
        </mxCell>
        <mxCell id="gQomMeaBvaKWh9qNt1xV-184" value="&lt;font face=&quot;Verdana&quot;&gt;&lt;span style=&quot;text-wrap-mode: nowrap;&quot;&gt;Email&lt;/span&gt;&lt;/font&gt;" style="shape=partialRectangle;html=1;whiteSpace=wrap;connectable=0;strokeColor=inherit;overflow=hidden;fillColor=none;top=0;left=0;bottom=0;right=0;pointerEvents=1;fontSize=13;align=left;" vertex="1" parent="gQomMeaBvaKWh9qNt1xV-182">
          <mxGeometry x="87" width="113" height="40" as="geometry">
            <mxRectangle width="113" height="40" as="alternateBounds" />
          </mxGeometry>
        </mxCell>
        <mxCell id="gQomMeaBvaKWh9qNt1xV-185" value="Single line of text" style="shape=partialRectangle;html=1;whiteSpace=wrap;connectable=0;strokeColor=inherit;overflow=hidden;fillColor=none;top=0;left=0;bottom=0;right=0;pointerEvents=1;fontSize=16;" vertex="1" parent="gQomMeaBvaKWh9qNt1xV-182">
          <mxGeometry x="200" width="200" height="40" as="geometry">
            <mxRectangle width="200" height="40" as="alternateBounds" />
          </mxGeometry>
        </mxCell>
        <mxCell id="gQomMeaBvaKWh9qNt1xV-186" value="" style="shape=tableRow;horizontal=0;startSize=0;swimlaneHead=0;swimlaneBody=0;strokeColor=inherit;top=0;left=0;bottom=0;right=0;collapsible=0;dropTarget=0;fillColor=none;points=[[0,0.5],[1,0.5]];portConstraint=eastwest;fontSize=16;" vertex="1" parent="gQomMeaBvaKWh9qNt1xV-157">
          <mxGeometry y="320" width="400.0000000000009" height="40" as="geometry" />
        </mxCell>
        <mxCell id="gQomMeaBvaKWh9qNt1xV-187" value="" style="shape=partialRectangle;html=1;whiteSpace=wrap;connectable=0;strokeColor=inherit;overflow=hidden;fillColor=none;top=0;left=0;bottom=0;right=0;pointerEvents=1;fontSize=16;" vertex="1" parent="gQomMeaBvaKWh9qNt1xV-186">
          <mxGeometry width="87" height="40" as="geometry">
            <mxRectangle width="87" height="40" as="alternateBounds" />
          </mxGeometry>
        </mxCell>
        <mxCell id="gQomMeaBvaKWh9qNt1xV-188" value="&lt;span style=&quot;font-family: Verdana; font-size: 13px; text-wrap-mode: nowrap;&quot;&gt;Active&lt;/span&gt;" style="shape=partialRectangle;html=1;whiteSpace=wrap;connectable=0;strokeColor=inherit;overflow=hidden;fillColor=none;top=0;left=0;bottom=0;right=0;pointerEvents=1;fontSize=13;align=left;" vertex="1" parent="gQomMeaBvaKWh9qNt1xV-186">
          <mxGeometry x="87" width="113" height="40" as="geometry">
            <mxRectangle width="113" height="40" as="alternateBounds" />
          </mxGeometry>
        </mxCell>
        <mxCell id="gQomMeaBvaKWh9qNt1xV-189" value="Yes/No" style="shape=partialRectangle;html=1;whiteSpace=wrap;connectable=0;strokeColor=inherit;overflow=hidden;fillColor=none;top=0;left=0;bottom=0;right=0;pointerEvents=1;fontSize=16;" vertex="1" parent="gQomMeaBvaKWh9qNt1xV-186">
          <mxGeometry x="200" width="200" height="40" as="geometry">
            <mxRectangle width="200" height="40" as="alternateBounds" />
          </mxGeometry>
        </mxCell>
        <mxCell id="gQomMeaBvaKWh9qNt1xV-190" value="" style="shape=tableRow;horizontal=0;startSize=0;swimlaneHead=0;swimlaneBody=0;strokeColor=inherit;top=0;left=0;bottom=0;right=0;collapsible=0;dropTarget=0;fillColor=none;points=[[0,0.5],[1,0.5]];portConstraint=eastwest;fontSize=16;" vertex="1" parent="gQomMeaBvaKWh9qNt1xV-157">
          <mxGeometry y="360" width="400.0000000000009" height="40" as="geometry" />
        </mxCell>
        <mxCell id="gQomMeaBvaKWh9qNt1xV-191" value="" style="shape=partialRectangle;html=1;whiteSpace=wrap;connectable=0;strokeColor=inherit;overflow=hidden;fillColor=none;top=0;left=0;bottom=0;right=0;pointerEvents=1;fontSize=16;" vertex="1" parent="gQomMeaBvaKWh9qNt1xV-190">
          <mxGeometry width="87" height="40" as="geometry">
            <mxRectangle width="87" height="40" as="alternateBounds" />
          </mxGeometry>
        </mxCell>
        <mxCell id="gQomMeaBvaKWh9qNt1xV-192" value="&lt;span style=&quot;font-family: Verdana; font-size: 13px; text-wrap-mode: nowrap;&quot;&gt;StateCode&lt;/span&gt;" style="shape=partialRectangle;html=1;whiteSpace=wrap;connectable=0;strokeColor=inherit;overflow=hidden;fillColor=none;top=0;left=0;bottom=0;right=0;pointerEvents=1;fontSize=13;align=left;" vertex="1" parent="gQomMeaBvaKWh9qNt1xV-190">
          <mxGeometry x="87" width="113" height="40" as="geometry">
            <mxRectangle width="113" height="40" as="alternateBounds" />
          </mxGeometry>
        </mxCell>
        <mxCell id="gQomMeaBvaKWh9qNt1xV-193" value="Single line of text" style="shape=partialRectangle;html=1;whiteSpace=wrap;connectable=0;strokeColor=inherit;overflow=hidden;fillColor=none;top=0;left=0;bottom=0;right=0;pointerEvents=1;fontSize=16;" vertex="1" parent="gQomMeaBvaKWh9qNt1xV-190">
          <mxGeometry x="200" width="200" height="40" as="geometry">
            <mxRectangle width="200" height="40" as="alternateBounds" />
          </mxGeometry>
        </mxCell>
        <mxCell id="gQomMeaBvaKWh9qNt1xV-194" value="" style="shape=tableRow;horizontal=0;startSize=0;swimlaneHead=0;swimlaneBody=0;strokeColor=inherit;top=0;left=0;bottom=0;right=0;collapsible=0;dropTarget=0;fillColor=none;points=[[0,0.5],[1,0.5]];portConstraint=eastwest;fontSize=16;" vertex="1" parent="gQomMeaBvaKWh9qNt1xV-157">
          <mxGeometry y="400" width="400.0000000000009" height="40" as="geometry" />
        </mxCell>
        <mxCell id="gQomMeaBvaKWh9qNt1xV-195" value="" style="shape=partialRectangle;html=1;whiteSpace=wrap;connectable=0;strokeColor=inherit;overflow=hidden;fillColor=none;top=0;left=0;bottom=0;right=0;pointerEvents=1;fontSize=16;" vertex="1" parent="gQomMeaBvaKWh9qNt1xV-194">
          <mxGeometry width="87" height="40" as="geometry">
            <mxRectangle width="87" height="40" as="alternateBounds" />
          </mxGeometry>
        </mxCell>
        <mxCell id="gQomMeaBvaKWh9qNt1xV-196" value="&lt;span style=&quot;font-family: Verdana; font-size: 13px; text-wrap-mode: nowrap;&quot;&gt;SISCode&lt;/span&gt;" style="shape=partialRectangle;html=1;whiteSpace=wrap;connectable=0;strokeColor=inherit;overflow=hidden;fillColor=none;top=0;left=0;bottom=0;right=0;pointerEvents=1;fontSize=13;align=left;" vertex="1" parent="gQomMeaBvaKWh9qNt1xV-194">
          <mxGeometry x="87" width="113" height="40" as="geometry">
            <mxRectangle width="113" height="40" as="alternateBounds" />
          </mxGeometry>
        </mxCell>
        <mxCell id="gQomMeaBvaKWh9qNt1xV-197" value="Single line of text" style="shape=partialRectangle;html=1;whiteSpace=wrap;connectable=0;strokeColor=inherit;overflow=hidden;fillColor=none;top=0;left=0;bottom=0;right=0;pointerEvents=1;fontSize=16;" vertex="1" parent="gQomMeaBvaKWh9qNt1xV-194">
          <mxGeometry x="200" width="200" height="40" as="geometry">
            <mxRectangle width="200" height="40" as="alternateBounds" />
          </mxGeometry>
        </mxCell>
        <mxCell id="gQomMeaBvaKWh9qNt1xV-248" value="Staff" style="shape=table;startSize=40;container=1;collapsible=0;childLayout=tableLayout;strokeColor=#6c8ebf;fontSize=16;fontFamily=Helvetica;align=center;fontStyle=1;fillColor=#dae8fc;gradientColor=none;swimlaneFillColor=default;" vertex="1" parent="1">
          <mxGeometry x="850" y="-170" width="400.0000000000009" height="760.0000000000002" as="geometry" />
        </mxCell>
        <mxCell id="gQomMeaBvaKWh9qNt1xV-249" value="" style="shape=tableRow;horizontal=0;startSize=0;swimlaneHead=0;swimlaneBody=0;strokeColor=inherit;top=0;left=0;bottom=0;right=0;collapsible=0;dropTarget=0;fillColor=none;points=[[0,0.5],[1,0.5]];portConstraint=eastwest;fontSize=16;" vertex="1" parent="gQomMeaBvaKWh9qNt1xV-248">
          <mxGeometry y="40" width="400.0000000000009" height="40" as="geometry" />
        </mxCell>
        <mxCell id="gQomMeaBvaKWh9qNt1xV-250" value="PK" style="shape=partialRectangle;html=1;whiteSpace=wrap;connectable=0;strokeColor=inherit;overflow=hidden;fillColor=none;top=0;left=0;bottom=0;right=0;pointerEvents=1;fontSize=16;align=center;" vertex="1" parent="gQomMeaBvaKWh9qNt1xV-249">
          <mxGeometry width="87" height="40" as="geometry">
            <mxRectangle width="87" height="40" as="alternateBounds" />
          </mxGeometry>
        </mxCell>
        <mxCell id="gQomMeaBvaKWh9qNt1xV-251" value="StaffID" style="shape=partialRectangle;html=1;whiteSpace=wrap;connectable=0;strokeColor=inherit;overflow=hidden;fillColor=none;top=0;left=0;bottom=0;right=0;pointerEvents=1;fontSize=13;align=left;" vertex="1" parent="gQomMeaBvaKWh9qNt1xV-249">
          <mxGeometry x="87" width="113" height="40" as="geometry">
            <mxRectangle width="113" height="40" as="alternateBounds" />
          </mxGeometry>
        </mxCell>
        <mxCell id="gQomMeaBvaKWh9qNt1xV-252" value="" style="shape=partialRectangle;html=1;whiteSpace=wrap;connectable=0;strokeColor=inherit;overflow=hidden;fillColor=none;top=0;left=0;bottom=0;right=0;pointerEvents=1;fontSize=16;" vertex="1" parent="gQomMeaBvaKWh9qNt1xV-249">
          <mxGeometry x="200" width="200" height="40" as="geometry">
            <mxRectangle width="200" height="40" as="alternateBounds" />
          </mxGeometry>
        </mxCell>
        <mxCell id="gQomMeaBvaKWh9qNt1xV-253" value="" style="shape=tableRow;horizontal=0;startSize=0;swimlaneHead=0;swimlaneBody=0;strokeColor=inherit;top=0;left=0;bottom=0;right=0;collapsible=0;dropTarget=0;fillColor=none;points=[[0,0.5],[1,0.5]];portConstraint=eastwest;fontSize=16;" vertex="1" parent="gQomMeaBvaKWh9qNt1xV-248">
          <mxGeometry y="80" width="400.0000000000009" height="40" as="geometry" />
        </mxCell>
        <mxCell id="gQomMeaBvaKWh9qNt1xV-254" value="" style="shape=partialRectangle;html=1;whiteSpace=wrap;connectable=0;strokeColor=inherit;overflow=hidden;fillColor=none;top=0;left=0;bottom=0;right=0;pointerEvents=1;fontSize=16;" vertex="1" parent="gQomMeaBvaKWh9qNt1xV-253">
          <mxGeometry width="87" height="40" as="geometry">
            <mxRectangle width="87" height="40" as="alternateBounds" />
          </mxGeometry>
        </mxCell>
        <mxCell id="gQomMeaBvaKWh9qNt1xV-255" value="&lt;span style=&quot;font-family: Verdana; text-wrap-mode: nowrap;&quot;&gt;Last&lt;/span&gt;" style="shape=partialRectangle;html=1;whiteSpace=wrap;connectable=0;strokeColor=inherit;overflow=hidden;fillColor=none;top=0;left=0;bottom=0;right=0;pointerEvents=1;fontSize=13;align=left;" vertex="1" parent="gQomMeaBvaKWh9qNt1xV-253">
          <mxGeometry x="87" width="113" height="40" as="geometry">
            <mxRectangle width="113" height="40" as="alternateBounds" />
          </mxGeometry>
        </mxCell>
        <mxCell id="gQomMeaBvaKWh9qNt1xV-256" value="Single line of text" style="shape=partialRectangle;html=1;whiteSpace=wrap;connectable=0;strokeColor=inherit;overflow=hidden;fillColor=none;top=0;left=0;bottom=0;right=0;pointerEvents=1;fontSize=16;" vertex="1" parent="gQomMeaBvaKWh9qNt1xV-253">
          <mxGeometry x="200" width="200" height="40" as="geometry">
            <mxRectangle width="200" height="40" as="alternateBounds" />
          </mxGeometry>
        </mxCell>
        <mxCell id="gQomMeaBvaKWh9qNt1xV-257" value="" style="shape=tableRow;horizontal=0;startSize=0;swimlaneHead=0;swimlaneBody=0;strokeColor=inherit;top=0;left=0;bottom=0;right=0;collapsible=0;dropTarget=0;fillColor=none;points=[[0,0.5],[1,0.5]];portConstraint=eastwest;fontSize=16;" vertex="1" parent="gQomMeaBvaKWh9qNt1xV-248">
          <mxGeometry y="120" width="400.0000000000009" height="40" as="geometry" />
        </mxCell>
        <mxCell id="gQomMeaBvaKWh9qNt1xV-258" value="" style="shape=partialRectangle;html=1;whiteSpace=wrap;connectable=0;strokeColor=inherit;overflow=hidden;fillColor=none;top=0;left=0;bottom=0;right=0;pointerEvents=1;fontSize=16;" vertex="1" parent="gQomMeaBvaKWh9qNt1xV-257">
          <mxGeometry width="87" height="40" as="geometry">
            <mxRectangle width="87" height="40" as="alternateBounds" />
          </mxGeometry>
        </mxCell>
        <mxCell id="gQomMeaBvaKWh9qNt1xV-259" value="First" style="shape=partialRectangle;html=1;whiteSpace=wrap;connectable=0;strokeColor=inherit;overflow=hidden;fillColor=none;top=0;left=0;bottom=0;right=0;pointerEvents=1;fontSize=13;align=left;" vertex="1" parent="gQomMeaBvaKWh9qNt1xV-257">
          <mxGeometry x="87" width="113" height="40" as="geometry">
            <mxRectangle width="113" height="40" as="alternateBounds" />
          </mxGeometry>
        </mxCell>
        <mxCell id="gQomMeaBvaKWh9qNt1xV-260" value="Single line of text" style="shape=partialRectangle;html=1;whiteSpace=wrap;connectable=0;strokeColor=inherit;overflow=hidden;fillColor=none;top=0;left=0;bottom=0;right=0;pointerEvents=1;fontSize=16;" vertex="1" parent="gQomMeaBvaKWh9qNt1xV-257">
          <mxGeometry x="200" width="200" height="40" as="geometry">
            <mxRectangle width="200" height="40" as="alternateBounds" />
          </mxGeometry>
        </mxCell>
        <mxCell id="gQomMeaBvaKWh9qNt1xV-348" value="" style="shape=tableRow;horizontal=0;startSize=0;swimlaneHead=0;swimlaneBody=0;strokeColor=inherit;top=0;left=0;bottom=0;right=0;collapsible=0;dropTarget=0;fillColor=none;points=[[0,0.5],[1,0.5]];portConstraint=eastwest;fontSize=16;" vertex="1" parent="gQomMeaBvaKWh9qNt1xV-248">
          <mxGeometry y="160" width="400.0000000000009" height="40" as="geometry" />
        </mxCell>
        <mxCell id="gQomMeaBvaKWh9qNt1xV-349" value="" style="shape=partialRectangle;html=1;whiteSpace=wrap;connectable=0;strokeColor=inherit;overflow=hidden;fillColor=none;top=0;left=0;bottom=0;right=0;pointerEvents=1;fontSize=16;" vertex="1" parent="gQomMeaBvaKWh9qNt1xV-348">
          <mxGeometry width="87" height="40" as="geometry">
            <mxRectangle width="87" height="40" as="alternateBounds" />
          </mxGeometry>
        </mxCell>
        <mxCell id="gQomMeaBvaKWh9qNt1xV-350" value="Prefix" style="shape=partialRectangle;html=1;whiteSpace=wrap;connectable=0;strokeColor=inherit;overflow=hidden;fillColor=none;top=0;left=0;bottom=0;right=0;pointerEvents=1;fontSize=13;align=left;" vertex="1" parent="gQomMeaBvaKWh9qNt1xV-348">
          <mxGeometry x="87" width="113" height="40" as="geometry">
            <mxRectangle width="113" height="40" as="alternateBounds" />
          </mxGeometry>
        </mxCell>
        <mxCell id="gQomMeaBvaKWh9qNt1xV-351" value="Dr., Mr., Ms., Mx." style="shape=partialRectangle;html=1;whiteSpace=wrap;connectable=0;strokeColor=inherit;overflow=hidden;fillColor=none;top=0;left=0;bottom=0;right=0;pointerEvents=1;fontSize=16;" vertex="1" parent="gQomMeaBvaKWh9qNt1xV-348">
          <mxGeometry x="200" width="200" height="40" as="geometry">
            <mxRectangle width="200" height="40" as="alternateBounds" />
          </mxGeometry>
        </mxCell>
        <mxCell id="gQomMeaBvaKWh9qNt1xV-261" value="" style="shape=tableRow;horizontal=0;startSize=0;swimlaneHead=0;swimlaneBody=0;strokeColor=inherit;top=0;left=0;bottom=0;right=0;collapsible=0;dropTarget=0;fillColor=none;points=[[0,0.5],[1,0.5]];portConstraint=eastwest;fontSize=16;" vertex="1" parent="gQomMeaBvaKWh9qNt1xV-248">
          <mxGeometry y="200" width="400.0000000000009" height="40" as="geometry" />
        </mxCell>
        <mxCell id="gQomMeaBvaKWh9qNt1xV-262" value="" style="shape=partialRectangle;html=1;whiteSpace=wrap;connectable=0;strokeColor=inherit;overflow=hidden;fillColor=none;top=0;left=0;bottom=0;right=0;pointerEvents=1;fontSize=16;" vertex="1" parent="gQomMeaBvaKWh9qNt1xV-261">
          <mxGeometry width="87" height="40" as="geometry">
            <mxRectangle width="87" height="40" as="alternateBounds" />
          </mxGeometry>
        </mxCell>
        <mxCell id="gQomMeaBvaKWh9qNt1xV-263" value="Username" style="shape=partialRectangle;html=1;whiteSpace=wrap;connectable=0;strokeColor=inherit;overflow=hidden;fillColor=none;top=0;left=0;bottom=0;right=0;pointerEvents=1;fontSize=13;align=left;" vertex="1" parent="gQomMeaBvaKWh9qNt1xV-261">
          <mxGeometry x="87" width="113" height="40" as="geometry">
            <mxRectangle width="113" height="40" as="alternateBounds" />
          </mxGeometry>
        </mxCell>
        <mxCell id="gQomMeaBvaKWh9qNt1xV-264" value="Single line of text" style="shape=partialRectangle;html=1;whiteSpace=wrap;connectable=0;strokeColor=inherit;overflow=hidden;fillColor=none;top=0;left=0;bottom=0;right=0;pointerEvents=1;fontSize=16;" vertex="1" parent="gQomMeaBvaKWh9qNt1xV-261">
          <mxGeometry x="200" width="200" height="40" as="geometry">
            <mxRectangle width="200" height="40" as="alternateBounds" />
          </mxGeometry>
        </mxCell>
        <mxCell id="gQomMeaBvaKWh9qNt1xV-286" value="" style="shape=tableRow;horizontal=0;startSize=0;swimlaneHead=0;swimlaneBody=0;strokeColor=inherit;top=0;left=0;bottom=0;right=0;collapsible=0;dropTarget=0;fillColor=none;points=[[0,0.5],[1,0.5]];portConstraint=eastwest;fontSize=16;" vertex="1" parent="gQomMeaBvaKWh9qNt1xV-248">
          <mxGeometry y="240" width="400.0000000000009" height="40" as="geometry" />
        </mxCell>
        <mxCell id="gQomMeaBvaKWh9qNt1xV-287" value="" style="shape=partialRectangle;html=1;whiteSpace=wrap;connectable=0;strokeColor=inherit;overflow=hidden;fillColor=none;top=0;left=0;bottom=0;right=0;pointerEvents=1;fontSize=16;" vertex="1" parent="gQomMeaBvaKWh9qNt1xV-286">
          <mxGeometry width="87" height="40" as="geometry">
            <mxRectangle width="87" height="40" as="alternateBounds" />
          </mxGeometry>
        </mxCell>
        <mxCell id="gQomMeaBvaKWh9qNt1xV-288" value="Email" style="shape=partialRectangle;html=1;whiteSpace=wrap;connectable=0;strokeColor=inherit;overflow=hidden;fillColor=none;top=0;left=0;bottom=0;right=0;pointerEvents=1;fontSize=13;align=left;" vertex="1" parent="gQomMeaBvaKWh9qNt1xV-286">
          <mxGeometry x="87" width="113" height="40" as="geometry">
            <mxRectangle width="113" height="40" as="alternateBounds" />
          </mxGeometry>
        </mxCell>
        <mxCell id="gQomMeaBvaKWh9qNt1xV-289" value="Single line of text" style="shape=partialRectangle;html=1;whiteSpace=wrap;connectable=0;strokeColor=inherit;overflow=hidden;fillColor=none;top=0;left=0;bottom=0;right=0;pointerEvents=1;fontSize=16;" vertex="1" parent="gQomMeaBvaKWh9qNt1xV-286">
          <mxGeometry x="200" width="200" height="40" as="geometry">
            <mxRectangle width="200" height="40" as="alternateBounds" />
          </mxGeometry>
        </mxCell>
        <mxCell id="gQomMeaBvaKWh9qNt1xV-290" value="" style="shape=tableRow;horizontal=0;startSize=0;swimlaneHead=0;swimlaneBody=0;strokeColor=inherit;top=0;left=0;bottom=0;right=0;collapsible=0;dropTarget=0;fillColor=none;points=[[0,0.5],[1,0.5]];portConstraint=eastwest;fontSize=16;" vertex="1" parent="gQomMeaBvaKWh9qNt1xV-248">
          <mxGeometry y="280" width="400.0000000000009" height="40" as="geometry" />
        </mxCell>
        <mxCell id="gQomMeaBvaKWh9qNt1xV-291" value="FK" style="shape=partialRectangle;html=1;whiteSpace=wrap;connectable=0;strokeColor=inherit;overflow=hidden;fillColor=none;top=0;left=0;bottom=0;right=0;pointerEvents=1;fontSize=16;" vertex="1" parent="gQomMeaBvaKWh9qNt1xV-290">
          <mxGeometry width="87" height="40" as="geometry">
            <mxRectangle width="87" height="40" as="alternateBounds" />
          </mxGeometry>
        </mxCell>
        <mxCell id="gQomMeaBvaKWh9qNt1xV-292" value="Location" style="shape=partialRectangle;html=1;whiteSpace=wrap;connectable=0;strokeColor=inherit;overflow=hidden;fillColor=none;top=0;left=0;bottom=0;right=0;pointerEvents=1;fontSize=13;align=left;" vertex="1" parent="gQomMeaBvaKWh9qNt1xV-290">
          <mxGeometry x="87" width="113" height="40" as="geometry">
            <mxRectangle width="113" height="40" as="alternateBounds" />
          </mxGeometry>
        </mxCell>
        <mxCell id="gQomMeaBvaKWh9qNt1xV-293" value="Lookup" style="shape=partialRectangle;html=1;whiteSpace=wrap;connectable=0;strokeColor=inherit;overflow=hidden;fillColor=none;top=0;left=0;bottom=0;right=0;pointerEvents=1;fontSize=16;" vertex="1" parent="gQomMeaBvaKWh9qNt1xV-290">
          <mxGeometry x="200" width="200" height="40" as="geometry">
            <mxRectangle width="200" height="40" as="alternateBounds" />
          </mxGeometry>
        </mxCell>
        <mxCell id="gQomMeaBvaKWh9qNt1xV-294" value="" style="shape=tableRow;horizontal=0;startSize=0;swimlaneHead=0;swimlaneBody=0;strokeColor=inherit;top=0;left=0;bottom=0;right=0;collapsible=0;dropTarget=0;fillColor=none;points=[[0,0.5],[1,0.5]];portConstraint=eastwest;fontSize=16;" vertex="1" parent="gQomMeaBvaKWh9qNt1xV-248">
          <mxGeometry y="320" width="400.0000000000009" height="40" as="geometry" />
        </mxCell>
        <mxCell id="gQomMeaBvaKWh9qNt1xV-295" value="" style="shape=partialRectangle;html=1;whiteSpace=wrap;connectable=0;strokeColor=inherit;overflow=hidden;fillColor=none;top=0;left=0;bottom=0;right=0;pointerEvents=1;fontSize=16;" vertex="1" parent="gQomMeaBvaKWh9qNt1xV-294">
          <mxGeometry width="87" height="40" as="geometry">
            <mxRectangle width="87" height="40" as="alternateBounds" />
          </mxGeometry>
        </mxCell>
        <mxCell id="gQomMeaBvaKWh9qNt1xV-296" value="Biography" style="shape=partialRectangle;html=1;whiteSpace=wrap;connectable=0;strokeColor=inherit;overflow=hidden;fillColor=none;top=0;left=0;bottom=0;right=0;pointerEvents=1;fontSize=13;align=left;" vertex="1" parent="gQomMeaBvaKWh9qNt1xV-294">
          <mxGeometry x="87" width="113" height="40" as="geometry">
            <mxRectangle width="113" height="40" as="alternateBounds" />
          </mxGeometry>
        </mxCell>
        <mxCell id="gQomMeaBvaKWh9qNt1xV-297" value="Multiple lines of text (Rich-text enalbed)" style="shape=partialRectangle;html=1;whiteSpace=wrap;connectable=0;strokeColor=inherit;overflow=hidden;fillColor=none;top=0;left=0;bottom=0;right=0;pointerEvents=1;fontSize=16;" vertex="1" parent="gQomMeaBvaKWh9qNt1xV-294">
          <mxGeometry x="200" width="200" height="40" as="geometry">
            <mxRectangle width="200" height="40" as="alternateBounds" />
          </mxGeometry>
        </mxCell>
        <mxCell id="gQomMeaBvaKWh9qNt1xV-352" value="" style="shape=tableRow;horizontal=0;startSize=0;swimlaneHead=0;swimlaneBody=0;strokeColor=inherit;top=0;left=0;bottom=0;right=0;collapsible=0;dropTarget=0;fillColor=none;points=[[0,0.5],[1,0.5]];portConstraint=eastwest;fontSize=16;" vertex="1" parent="gQomMeaBvaKWh9qNt1xV-248">
          <mxGeometry y="360" width="400.0000000000009" height="40" as="geometry" />
        </mxCell>
        <mxCell id="gQomMeaBvaKWh9qNt1xV-353" value="" style="shape=partialRectangle;html=1;whiteSpace=wrap;connectable=0;strokeColor=inherit;overflow=hidden;fillColor=none;top=0;left=0;bottom=0;right=0;pointerEvents=1;fontSize=16;" vertex="1" parent="gQomMeaBvaKWh9qNt1xV-352">
          <mxGeometry width="87" height="40" as="geometry">
            <mxRectangle width="87" height="40" as="alternateBounds" />
          </mxGeometry>
        </mxCell>
        <mxCell id="gQomMeaBvaKWh9qNt1xV-354" value="DegreesCertifications" style="shape=partialRectangle;html=1;whiteSpace=wrap;connectable=0;strokeColor=inherit;overflow=hidden;fillColor=none;top=0;left=0;bottom=0;right=0;pointerEvents=1;fontSize=13;align=left;" vertex="1" parent="gQomMeaBvaKWh9qNt1xV-352">
          <mxGeometry x="87" width="113" height="40" as="geometry">
            <mxRectangle width="113" height="40" as="alternateBounds" />
          </mxGeometry>
        </mxCell>
        <mxCell id="gQomMeaBvaKWh9qNt1xV-355" value="Multiple lines of text (Rich-text enalbed)" style="shape=partialRectangle;html=1;whiteSpace=wrap;connectable=0;strokeColor=inherit;overflow=hidden;fillColor=none;top=0;left=0;bottom=0;right=0;pointerEvents=1;fontSize=16;" vertex="1" parent="gQomMeaBvaKWh9qNt1xV-352">
          <mxGeometry x="200" width="200" height="40" as="geometry">
            <mxRectangle width="200" height="40" as="alternateBounds" />
          </mxGeometry>
        </mxCell>
        <mxCell id="gQomMeaBvaKWh9qNt1xV-269" value="" style="shape=tableRow;horizontal=0;startSize=0;swimlaneHead=0;swimlaneBody=0;strokeColor=inherit;top=0;left=0;bottom=0;right=0;collapsible=0;dropTarget=0;fillColor=none;points=[[0,0.5],[1,0.5]];portConstraint=eastwest;fontSize=16;" vertex="1" parent="gQomMeaBvaKWh9qNt1xV-248">
          <mxGeometry y="400" width="400.0000000000009" height="40" as="geometry" />
        </mxCell>
        <mxCell id="gQomMeaBvaKWh9qNt1xV-270" value="" style="shape=partialRectangle;html=1;whiteSpace=wrap;connectable=0;strokeColor=inherit;overflow=hidden;fillColor=none;top=0;left=0;bottom=0;right=0;pointerEvents=1;fontSize=16;" vertex="1" parent="gQomMeaBvaKWh9qNt1xV-269">
          <mxGeometry width="87" height="40" as="geometry">
            <mxRectangle width="87" height="40" as="alternateBounds" />
          </mxGeometry>
        </mxCell>
        <mxCell id="gQomMeaBvaKWh9qNt1xV-271" value="Photo" style="shape=partialRectangle;html=1;whiteSpace=wrap;connectable=0;strokeColor=inherit;overflow=hidden;fillColor=none;top=0;left=0;bottom=0;right=0;pointerEvents=1;fontSize=13;align=left;" vertex="1" parent="gQomMeaBvaKWh9qNt1xV-269">
          <mxGeometry x="87" width="113" height="40" as="geometry">
            <mxRectangle width="113" height="40" as="alternateBounds" />
          </mxGeometry>
        </mxCell>
        <mxCell id="gQomMeaBvaKWh9qNt1xV-272" value="Photo" style="shape=partialRectangle;html=1;whiteSpace=wrap;connectable=0;strokeColor=inherit;overflow=hidden;fillColor=none;top=0;left=0;bottom=0;right=0;pointerEvents=1;fontSize=16;" vertex="1" parent="gQomMeaBvaKWh9qNt1xV-269">
          <mxGeometry x="200" width="200" height="40" as="geometry">
            <mxRectangle width="200" height="40" as="alternateBounds" />
          </mxGeometry>
        </mxCell>
        <mxCell id="gQomMeaBvaKWh9qNt1xV-273" value="" style="shape=tableRow;horizontal=0;startSize=0;swimlaneHead=0;swimlaneBody=0;strokeColor=inherit;top=0;left=0;bottom=0;right=0;collapsible=0;dropTarget=0;fillColor=none;points=[[0,0.5],[1,0.5]];portConstraint=eastwest;fontSize=16;" vertex="1" parent="gQomMeaBvaKWh9qNt1xV-248">
          <mxGeometry y="440" width="400.0000000000009" height="40" as="geometry" />
        </mxCell>
        <mxCell id="gQomMeaBvaKWh9qNt1xV-274" value="" style="shape=partialRectangle;html=1;whiteSpace=wrap;connectable=0;strokeColor=inherit;overflow=hidden;fillColor=none;top=0;left=0;bottom=0;right=0;pointerEvents=1;fontSize=16;" vertex="1" parent="gQomMeaBvaKWh9qNt1xV-273">
          <mxGeometry width="87" height="40" as="geometry">
            <mxRectangle width="87" height="40" as="alternateBounds" />
          </mxGeometry>
        </mxCell>
        <mxCell id="gQomMeaBvaKWh9qNt1xV-275" value="GradeLevel1" style="shape=partialRectangle;html=1;whiteSpace=wrap;connectable=0;strokeColor=inherit;overflow=hidden;fillColor=none;top=0;left=0;bottom=0;right=0;pointerEvents=1;fontSize=13;align=left;" vertex="1" parent="gQomMeaBvaKWh9qNt1xV-273">
          <mxGeometry x="87" width="113" height="40" as="geometry">
            <mxRectangle width="113" height="40" as="alternateBounds" />
          </mxGeometry>
        </mxCell>
        <mxCell id="gQomMeaBvaKWh9qNt1xV-276" value="Lookup" style="shape=partialRectangle;html=1;whiteSpace=wrap;connectable=0;strokeColor=inherit;overflow=hidden;fillColor=none;top=0;left=0;bottom=0;right=0;pointerEvents=1;fontSize=16;" vertex="1" parent="gQomMeaBvaKWh9qNt1xV-273">
          <mxGeometry x="200" width="200" height="40" as="geometry">
            <mxRectangle width="200" height="40" as="alternateBounds" />
          </mxGeometry>
        </mxCell>
        <mxCell id="gQomMeaBvaKWh9qNt1xV-377" value="" style="shape=tableRow;horizontal=0;startSize=0;swimlaneHead=0;swimlaneBody=0;strokeColor=inherit;top=0;left=0;bottom=0;right=0;collapsible=0;dropTarget=0;fillColor=none;points=[[0,0.5],[1,0.5]];portConstraint=eastwest;fontSize=16;" vertex="1" parent="gQomMeaBvaKWh9qNt1xV-248">
          <mxGeometry y="480" width="400.0000000000009" height="40" as="geometry" />
        </mxCell>
        <mxCell id="gQomMeaBvaKWh9qNt1xV-378" value="" style="shape=partialRectangle;html=1;whiteSpace=wrap;connectable=0;strokeColor=inherit;overflow=hidden;fillColor=none;top=0;left=0;bottom=0;right=0;pointerEvents=1;fontSize=16;" vertex="1" parent="gQomMeaBvaKWh9qNt1xV-377">
          <mxGeometry width="87" height="40" as="geometry">
            <mxRectangle width="87" height="40" as="alternateBounds" />
          </mxGeometry>
        </mxCell>
        <mxCell id="gQomMeaBvaKWh9qNt1xV-379" value="GradeLevel2" style="shape=partialRectangle;html=1;whiteSpace=wrap;connectable=0;strokeColor=inherit;overflow=hidden;fillColor=none;top=0;left=0;bottom=0;right=0;pointerEvents=1;fontSize=13;align=left;" vertex="1" parent="gQomMeaBvaKWh9qNt1xV-377">
          <mxGeometry x="87" width="113" height="40" as="geometry">
            <mxRectangle width="113" height="40" as="alternateBounds" />
          </mxGeometry>
        </mxCell>
        <mxCell id="gQomMeaBvaKWh9qNt1xV-380" value="Lookup" style="shape=partialRectangle;html=1;whiteSpace=wrap;connectable=0;strokeColor=inherit;overflow=hidden;fillColor=none;top=0;left=0;bottom=0;right=0;pointerEvents=1;fontSize=16;" vertex="1" parent="gQomMeaBvaKWh9qNt1xV-377">
          <mxGeometry x="200" width="200" height="40" as="geometry">
            <mxRectangle width="200" height="40" as="alternateBounds" />
          </mxGeometry>
        </mxCell>
        <mxCell id="gQomMeaBvaKWh9qNt1xV-381" value="" style="shape=tableRow;horizontal=0;startSize=0;swimlaneHead=0;swimlaneBody=0;strokeColor=inherit;top=0;left=0;bottom=0;right=0;collapsible=0;dropTarget=0;fillColor=none;points=[[0,0.5],[1,0.5]];portConstraint=eastwest;fontSize=16;" vertex="1" parent="gQomMeaBvaKWh9qNt1xV-248">
          <mxGeometry y="520" width="400.0000000000009" height="40" as="geometry" />
        </mxCell>
        <mxCell id="gQomMeaBvaKWh9qNt1xV-382" value="" style="shape=partialRectangle;html=1;whiteSpace=wrap;connectable=0;strokeColor=inherit;overflow=hidden;fillColor=none;top=0;left=0;bottom=0;right=0;pointerEvents=1;fontSize=16;" vertex="1" parent="gQomMeaBvaKWh9qNt1xV-381">
          <mxGeometry width="87" height="40" as="geometry">
            <mxRectangle width="87" height="40" as="alternateBounds" />
          </mxGeometry>
        </mxCell>
        <mxCell id="gQomMeaBvaKWh9qNt1xV-383" value="GradeLevel3" style="shape=partialRectangle;html=1;whiteSpace=wrap;connectable=0;strokeColor=inherit;overflow=hidden;fillColor=none;top=0;left=0;bottom=0;right=0;pointerEvents=1;fontSize=13;align=left;" vertex="1" parent="gQomMeaBvaKWh9qNt1xV-381">
          <mxGeometry x="87" width="113" height="40" as="geometry">
            <mxRectangle width="113" height="40" as="alternateBounds" />
          </mxGeometry>
        </mxCell>
        <mxCell id="gQomMeaBvaKWh9qNt1xV-384" value="Lookup" style="shape=partialRectangle;html=1;whiteSpace=wrap;connectable=0;strokeColor=inherit;overflow=hidden;fillColor=none;top=0;left=0;bottom=0;right=0;pointerEvents=1;fontSize=16;" vertex="1" parent="gQomMeaBvaKWh9qNt1xV-381">
          <mxGeometry x="200" width="200" height="40" as="geometry">
            <mxRectangle width="200" height="40" as="alternateBounds" />
          </mxGeometry>
        </mxCell>
        <mxCell id="gQomMeaBvaKWh9qNt1xV-385" value="" style="shape=tableRow;horizontal=0;startSize=0;swimlaneHead=0;swimlaneBody=0;strokeColor=inherit;top=0;left=0;bottom=0;right=0;collapsible=0;dropTarget=0;fillColor=none;points=[[0,0.5],[1,0.5]];portConstraint=eastwest;fontSize=16;" vertex="1" parent="gQomMeaBvaKWh9qNt1xV-248">
          <mxGeometry y="560" width="400.0000000000009" height="40" as="geometry" />
        </mxCell>
        <mxCell id="gQomMeaBvaKWh9qNt1xV-386" value="" style="shape=partialRectangle;html=1;whiteSpace=wrap;connectable=0;strokeColor=inherit;overflow=hidden;fillColor=none;top=0;left=0;bottom=0;right=0;pointerEvents=1;fontSize=16;" vertex="1" parent="gQomMeaBvaKWh9qNt1xV-385">
          <mxGeometry width="87" height="40" as="geometry">
            <mxRectangle width="87" height="40" as="alternateBounds" />
          </mxGeometry>
        </mxCell>
        <mxCell id="gQomMeaBvaKWh9qNt1xV-387" value="GradeLevel4" style="shape=partialRectangle;html=1;whiteSpace=wrap;connectable=0;strokeColor=inherit;overflow=hidden;fillColor=none;top=0;left=0;bottom=0;right=0;pointerEvents=1;fontSize=13;align=left;" vertex="1" parent="gQomMeaBvaKWh9qNt1xV-385">
          <mxGeometry x="87" width="113" height="40" as="geometry">
            <mxRectangle width="113" height="40" as="alternateBounds" />
          </mxGeometry>
        </mxCell>
        <mxCell id="gQomMeaBvaKWh9qNt1xV-388" value="Lookup" style="shape=partialRectangle;html=1;whiteSpace=wrap;connectable=0;strokeColor=inherit;overflow=hidden;fillColor=none;top=0;left=0;bottom=0;right=0;pointerEvents=1;fontSize=16;" vertex="1" parent="gQomMeaBvaKWh9qNt1xV-385">
          <mxGeometry x="200" width="200" height="40" as="geometry">
            <mxRectangle width="200" height="40" as="alternateBounds" />
          </mxGeometry>
        </mxCell>
        <mxCell id="gQomMeaBvaKWh9qNt1xV-356" value="" style="shape=tableRow;horizontal=0;startSize=0;swimlaneHead=0;swimlaneBody=0;strokeColor=inherit;top=0;left=0;bottom=0;right=0;collapsible=0;dropTarget=0;fillColor=none;points=[[0,0.5],[1,0.5]];portConstraint=eastwest;fontSize=16;" vertex="1" parent="gQomMeaBvaKWh9qNt1xV-248">
          <mxGeometry y="600" width="400.0000000000009" height="40" as="geometry" />
        </mxCell>
        <mxCell id="gQomMeaBvaKWh9qNt1xV-357" value="" style="shape=partialRectangle;html=1;whiteSpace=wrap;connectable=0;strokeColor=inherit;overflow=hidden;fillColor=none;top=0;left=0;bottom=0;right=0;pointerEvents=1;fontSize=16;" vertex="1" parent="gQomMeaBvaKWh9qNt1xV-356">
          <mxGeometry width="87" height="40" as="geometry">
            <mxRectangle width="87" height="40" as="alternateBounds" />
          </mxGeometry>
        </mxCell>
        <mxCell id="gQomMeaBvaKWh9qNt1xV-358" value="JobTitle" style="shape=partialRectangle;html=1;whiteSpace=wrap;connectable=0;strokeColor=inherit;overflow=hidden;fillColor=none;top=0;left=0;bottom=0;right=0;pointerEvents=1;fontSize=13;align=left;" vertex="1" parent="gQomMeaBvaKWh9qNt1xV-356">
          <mxGeometry x="87" width="113" height="40" as="geometry">
            <mxRectangle width="113" height="40" as="alternateBounds" />
          </mxGeometry>
        </mxCell>
        <mxCell id="gQomMeaBvaKWh9qNt1xV-359" value="Lookup" style="shape=partialRectangle;html=1;whiteSpace=wrap;connectable=0;strokeColor=inherit;overflow=hidden;fillColor=none;top=0;left=0;bottom=0;right=0;pointerEvents=1;fontSize=16;" vertex="1" parent="gQomMeaBvaKWh9qNt1xV-356">
          <mxGeometry x="200" width="200" height="40" as="geometry">
            <mxRectangle width="200" height="40" as="alternateBounds" />
          </mxGeometry>
        </mxCell>
        <mxCell id="gQomMeaBvaKWh9qNt1xV-360" value="" style="shape=tableRow;horizontal=0;startSize=0;swimlaneHead=0;swimlaneBody=0;strokeColor=inherit;top=0;left=0;bottom=0;right=0;collapsible=0;dropTarget=0;fillColor=none;points=[[0,0.5],[1,0.5]];portConstraint=eastwest;fontSize=16;" vertex="1" parent="gQomMeaBvaKWh9qNt1xV-248">
          <mxGeometry y="640" width="400.0000000000009" height="40" as="geometry" />
        </mxCell>
        <mxCell id="gQomMeaBvaKWh9qNt1xV-361" value="" style="shape=partialRectangle;html=1;whiteSpace=wrap;connectable=0;strokeColor=inherit;overflow=hidden;fillColor=none;top=0;left=0;bottom=0;right=0;pointerEvents=1;fontSize=16;" vertex="1" parent="gQomMeaBvaKWh9qNt1xV-360">
          <mxGeometry width="87" height="40" as="geometry">
            <mxRectangle width="87" height="40" as="alternateBounds" />
          </mxGeometry>
        </mxCell>
        <mxCell id="gQomMeaBvaKWh9qNt1xV-362" value="Role" style="shape=partialRectangle;html=1;whiteSpace=wrap;connectable=0;strokeColor=inherit;overflow=hidden;fillColor=none;top=0;left=0;bottom=0;right=0;pointerEvents=1;fontSize=13;align=left;" vertex="1" parent="gQomMeaBvaKWh9qNt1xV-360">
          <mxGeometry x="87" width="113" height="40" as="geometry">
            <mxRectangle width="113" height="40" as="alternateBounds" />
          </mxGeometry>
        </mxCell>
        <mxCell id="gQomMeaBvaKWh9qNt1xV-363" value="Lookup" style="shape=partialRectangle;html=1;whiteSpace=wrap;connectable=0;strokeColor=inherit;overflow=hidden;fillColor=none;top=0;left=0;bottom=0;right=0;pointerEvents=1;fontSize=16;" vertex="1" parent="gQomMeaBvaKWh9qNt1xV-360">
          <mxGeometry x="200" width="200" height="40" as="geometry">
            <mxRectangle width="200" height="40" as="alternateBounds" />
          </mxGeometry>
        </mxCell>
        <mxCell id="gQomMeaBvaKWh9qNt1xV-523" value="" style="shape=tableRow;horizontal=0;startSize=0;swimlaneHead=0;swimlaneBody=0;strokeColor=inherit;top=0;left=0;bottom=0;right=0;collapsible=0;dropTarget=0;fillColor=none;points=[[0,0.5],[1,0.5]];portConstraint=eastwest;fontSize=16;" vertex="1" parent="gQomMeaBvaKWh9qNt1xV-248">
          <mxGeometry y="680" width="400.0000000000009" height="40" as="geometry" />
        </mxCell>
        <mxCell id="gQomMeaBvaKWh9qNt1xV-524" value="" style="shape=partialRectangle;html=1;whiteSpace=wrap;connectable=0;strokeColor=inherit;overflow=hidden;fillColor=none;top=0;left=0;bottom=0;right=0;pointerEvents=1;fontSize=16;" vertex="1" parent="gQomMeaBvaKWh9qNt1xV-523">
          <mxGeometry width="87" height="40" as="geometry">
            <mxRectangle width="87" height="40" as="alternateBounds" />
          </mxGeometry>
        </mxCell>
        <mxCell id="gQomMeaBvaKWh9qNt1xV-525" value="Department" style="shape=partialRectangle;html=1;whiteSpace=wrap;connectable=0;strokeColor=inherit;overflow=hidden;fillColor=none;top=0;left=0;bottom=0;right=0;pointerEvents=1;fontSize=13;align=left;" vertex="1" parent="gQomMeaBvaKWh9qNt1xV-523">
          <mxGeometry x="87" width="113" height="40" as="geometry">
            <mxRectangle width="113" height="40" as="alternateBounds" />
          </mxGeometry>
        </mxCell>
        <mxCell id="gQomMeaBvaKWh9qNt1xV-526" value="Lookup" style="shape=partialRectangle;html=1;whiteSpace=wrap;connectable=0;strokeColor=inherit;overflow=hidden;fillColor=none;top=0;left=0;bottom=0;right=0;pointerEvents=1;fontSize=16;" vertex="1" parent="gQomMeaBvaKWh9qNt1xV-523">
          <mxGeometry x="200" width="200" height="40" as="geometry">
            <mxRectangle width="200" height="40" as="alternateBounds" />
          </mxGeometry>
        </mxCell>
        <mxCell id="gQomMeaBvaKWh9qNt1xV-364" value="" style="shape=tableRow;horizontal=0;startSize=0;swimlaneHead=0;swimlaneBody=0;strokeColor=inherit;top=0;left=0;bottom=0;right=0;collapsible=0;dropTarget=0;fillColor=none;points=[[0,0.5],[1,0.5]];portConstraint=eastwest;fontSize=16;" vertex="1" parent="gQomMeaBvaKWh9qNt1xV-248">
          <mxGeometry y="720" width="400.0000000000009" height="40" as="geometry" />
        </mxCell>
        <mxCell id="gQomMeaBvaKWh9qNt1xV-365" value="" style="shape=partialRectangle;html=1;whiteSpace=wrap;connectable=0;strokeColor=inherit;overflow=hidden;fillColor=none;top=0;left=0;bottom=0;right=0;pointerEvents=1;fontSize=16;" vertex="1" parent="gQomMeaBvaKWh9qNt1xV-364">
          <mxGeometry width="87" height="40" as="geometry">
            <mxRectangle width="87" height="40" as="alternateBounds" />
          </mxGeometry>
        </mxCell>
        <mxCell id="gQomMeaBvaKWh9qNt1xV-366" value="Active" style="shape=partialRectangle;html=1;whiteSpace=wrap;connectable=0;strokeColor=inherit;overflow=hidden;fillColor=none;top=0;left=0;bottom=0;right=0;pointerEvents=1;fontSize=13;align=left;" vertex="1" parent="gQomMeaBvaKWh9qNt1xV-364">
          <mxGeometry x="87" width="113" height="40" as="geometry">
            <mxRectangle width="113" height="40" as="alternateBounds" />
          </mxGeometry>
        </mxCell>
        <mxCell id="gQomMeaBvaKWh9qNt1xV-367" value="Yes/No" style="shape=partialRectangle;html=1;whiteSpace=wrap;connectable=0;strokeColor=inherit;overflow=hidden;fillColor=none;top=0;left=0;bottom=0;right=0;pointerEvents=1;fontSize=16;" vertex="1" parent="gQomMeaBvaKWh9qNt1xV-364">
          <mxGeometry x="200" width="200" height="40" as="geometry">
            <mxRectangle width="200" height="40" as="alternateBounds" />
          </mxGeometry>
        </mxCell>
        <mxCell id="gQomMeaBvaKWh9qNt1xV-277" value="Location" style="shape=table;startSize=40;container=1;collapsible=0;childLayout=tableLayout;strokeColor=#6c8ebf;fontSize=16;fontFamily=Helvetica;align=center;fontStyle=1;fillColor=#dae8fc;gradientColor=none;swimlaneFillColor=default;" vertex="1" parent="1">
          <mxGeometry x="-120" y="-200" width="400.0000000000009" height="160" as="geometry" />
        </mxCell>
        <mxCell id="gQomMeaBvaKWh9qNt1xV-278" value="" style="shape=tableRow;horizontal=0;startSize=0;swimlaneHead=0;swimlaneBody=0;strokeColor=inherit;top=0;left=0;bottom=0;right=0;collapsible=0;dropTarget=0;fillColor=none;points=[[0,0.5],[1,0.5]];portConstraint=eastwest;fontSize=16;" vertex="1" parent="gQomMeaBvaKWh9qNt1xV-277">
          <mxGeometry y="40" width="400.0000000000009" height="40" as="geometry" />
        </mxCell>
        <mxCell id="gQomMeaBvaKWh9qNt1xV-279" value="PK" style="shape=partialRectangle;html=1;whiteSpace=wrap;connectable=0;strokeColor=inherit;overflow=hidden;fillColor=none;top=0;left=0;bottom=0;right=0;pointerEvents=1;fontSize=16;align=center;" vertex="1" parent="gQomMeaBvaKWh9qNt1xV-278">
          <mxGeometry width="87" height="40" as="geometry">
            <mxRectangle width="87" height="40" as="alternateBounds" />
          </mxGeometry>
        </mxCell>
        <mxCell id="gQomMeaBvaKWh9qNt1xV-280" value="LocationID" style="shape=partialRectangle;html=1;whiteSpace=wrap;connectable=0;strokeColor=inherit;overflow=hidden;fillColor=none;top=0;left=0;bottom=0;right=0;pointerEvents=1;fontSize=13;align=left;" vertex="1" parent="gQomMeaBvaKWh9qNt1xV-278">
          <mxGeometry x="87" width="113" height="40" as="geometry">
            <mxRectangle width="113" height="40" as="alternateBounds" />
          </mxGeometry>
        </mxCell>
        <mxCell id="gQomMeaBvaKWh9qNt1xV-281" value="" style="shape=partialRectangle;html=1;whiteSpace=wrap;connectable=0;strokeColor=inherit;overflow=hidden;fillColor=none;top=0;left=0;bottom=0;right=0;pointerEvents=1;fontSize=16;" vertex="1" parent="gQomMeaBvaKWh9qNt1xV-278">
          <mxGeometry x="200" width="200" height="40" as="geometry">
            <mxRectangle width="200" height="40" as="alternateBounds" />
          </mxGeometry>
        </mxCell>
        <mxCell id="gQomMeaBvaKWh9qNt1xV-282" value="" style="shape=tableRow;horizontal=0;startSize=0;swimlaneHead=0;swimlaneBody=0;strokeColor=inherit;top=0;left=0;bottom=0;right=0;collapsible=0;dropTarget=0;fillColor=none;points=[[0,0.5],[1,0.5]];portConstraint=eastwest;fontSize=16;" vertex="1" parent="gQomMeaBvaKWh9qNt1xV-277">
          <mxGeometry y="80" width="400.0000000000009" height="40" as="geometry" />
        </mxCell>
        <mxCell id="gQomMeaBvaKWh9qNt1xV-283" value="" style="shape=partialRectangle;html=1;whiteSpace=wrap;connectable=0;strokeColor=inherit;overflow=hidden;fillColor=none;top=0;left=0;bottom=0;right=0;pointerEvents=1;fontSize=16;" vertex="1" parent="gQomMeaBvaKWh9qNt1xV-282">
          <mxGeometry width="87" height="40" as="geometry">
            <mxRectangle width="87" height="40" as="alternateBounds" />
          </mxGeometry>
        </mxCell>
        <mxCell id="gQomMeaBvaKWh9qNt1xV-284" value="&lt;span style=&quot;font-family: Verdana; text-wrap-mode: nowrap;&quot;&gt;Name&lt;/span&gt;" style="shape=partialRectangle;html=1;whiteSpace=wrap;connectable=0;strokeColor=inherit;overflow=hidden;fillColor=none;top=0;left=0;bottom=0;right=0;pointerEvents=1;fontSize=13;align=left;" vertex="1" parent="gQomMeaBvaKWh9qNt1xV-282">
          <mxGeometry x="87" width="113" height="40" as="geometry">
            <mxRectangle width="113" height="40" as="alternateBounds" />
          </mxGeometry>
        </mxCell>
        <mxCell id="gQomMeaBvaKWh9qNt1xV-285" value="Single line of text" style="shape=partialRectangle;html=1;whiteSpace=wrap;connectable=0;strokeColor=inherit;overflow=hidden;fillColor=none;top=0;left=0;bottom=0;right=0;pointerEvents=1;fontSize=16;" vertex="1" parent="gQomMeaBvaKWh9qNt1xV-282">
          <mxGeometry x="200" width="200" height="40" as="geometry">
            <mxRectangle width="200" height="40" as="alternateBounds" />
          </mxGeometry>
        </mxCell>
        <mxCell id="gQomMeaBvaKWh9qNt1xV-320" value="" style="shape=tableRow;horizontal=0;startSize=0;swimlaneHead=0;swimlaneBody=0;strokeColor=inherit;top=0;left=0;bottom=0;right=0;collapsible=0;dropTarget=0;fillColor=none;points=[[0,0.5],[1,0.5]];portConstraint=eastwest;fontSize=16;" vertex="1" parent="gQomMeaBvaKWh9qNt1xV-277">
          <mxGeometry y="120" width="400.0000000000009" height="40" as="geometry" />
        </mxCell>
        <mxCell id="gQomMeaBvaKWh9qNt1xV-321" value="FK" style="shape=partialRectangle;html=1;whiteSpace=wrap;connectable=0;strokeColor=inherit;overflow=hidden;fillColor=none;top=0;left=0;bottom=0;right=0;pointerEvents=1;fontSize=16;" vertex="1" parent="gQomMeaBvaKWh9qNt1xV-320">
          <mxGeometry width="87" height="40" as="geometry">
            <mxRectangle width="87" height="40" as="alternateBounds" />
          </mxGeometry>
        </mxCell>
        <mxCell id="gQomMeaBvaKWh9qNt1xV-322" value="&lt;span style=&quot;font-family: Verdana; text-wrap-mode: nowrap;&quot;&gt;SiteID&lt;/span&gt;" style="shape=partialRectangle;html=1;whiteSpace=wrap;connectable=0;strokeColor=inherit;overflow=hidden;fillColor=none;top=0;left=0;bottom=0;right=0;pointerEvents=1;fontSize=13;align=left;" vertex="1" parent="gQomMeaBvaKWh9qNt1xV-320">
          <mxGeometry x="87" width="113" height="40" as="geometry">
            <mxRectangle width="113" height="40" as="alternateBounds" />
          </mxGeometry>
        </mxCell>
        <mxCell id="gQomMeaBvaKWh9qNt1xV-323" value="foreignKey" style="shape=partialRectangle;html=1;whiteSpace=wrap;connectable=0;strokeColor=inherit;overflow=hidden;fillColor=none;top=0;left=0;bottom=0;right=0;pointerEvents=1;fontSize=16;" vertex="1" parent="gQomMeaBvaKWh9qNt1xV-320">
          <mxGeometry x="200" width="200" height="40" as="geometry">
            <mxRectangle width="200" height="40" as="alternateBounds" />
          </mxGeometry>
        </mxCell>
        <mxCell id="gQomMeaBvaKWh9qNt1xV-302" value="Role" style="shape=table;startSize=40;container=1;collapsible=0;childLayout=tableLayout;strokeColor=#6c8ebf;fontSize=16;fontFamily=Helvetica;align=center;fontStyle=1;fillColor=#dae8fc;gradientColor=none;swimlaneFillColor=default;" vertex="1" parent="1">
          <mxGeometry x="850" y="950" width="400.0000000000009" height="120" as="geometry" />
        </mxCell>
        <mxCell id="gQomMeaBvaKWh9qNt1xV-303" value="" style="shape=tableRow;horizontal=0;startSize=0;swimlaneHead=0;swimlaneBody=0;strokeColor=inherit;top=0;left=0;bottom=0;right=0;collapsible=0;dropTarget=0;fillColor=none;points=[[0,0.5],[1,0.5]];portConstraint=eastwest;fontSize=16;" vertex="1" parent="gQomMeaBvaKWh9qNt1xV-302">
          <mxGeometry y="40" width="400.0000000000009" height="40" as="geometry" />
        </mxCell>
        <mxCell id="gQomMeaBvaKWh9qNt1xV-304" value="PK" style="shape=partialRectangle;html=1;whiteSpace=wrap;connectable=0;strokeColor=inherit;overflow=hidden;fillColor=none;top=0;left=0;bottom=0;right=0;pointerEvents=1;fontSize=16;align=center;" vertex="1" parent="gQomMeaBvaKWh9qNt1xV-303">
          <mxGeometry width="87" height="40" as="geometry">
            <mxRectangle width="87" height="40" as="alternateBounds" />
          </mxGeometry>
        </mxCell>
        <mxCell id="gQomMeaBvaKWh9qNt1xV-305" value="RoleID" style="shape=partialRectangle;html=1;whiteSpace=wrap;connectable=0;strokeColor=inherit;overflow=hidden;fillColor=none;top=0;left=0;bottom=0;right=0;pointerEvents=1;fontSize=13;align=left;" vertex="1" parent="gQomMeaBvaKWh9qNt1xV-303">
          <mxGeometry x="87" width="113" height="40" as="geometry">
            <mxRectangle width="113" height="40" as="alternateBounds" />
          </mxGeometry>
        </mxCell>
        <mxCell id="gQomMeaBvaKWh9qNt1xV-306" value="" style="shape=partialRectangle;html=1;whiteSpace=wrap;connectable=0;strokeColor=inherit;overflow=hidden;fillColor=none;top=0;left=0;bottom=0;right=0;pointerEvents=1;fontSize=16;" vertex="1" parent="gQomMeaBvaKWh9qNt1xV-303">
          <mxGeometry x="200" width="200" height="40" as="geometry">
            <mxRectangle width="200" height="40" as="alternateBounds" />
          </mxGeometry>
        </mxCell>
        <mxCell id="gQomMeaBvaKWh9qNt1xV-307" value="" style="shape=tableRow;horizontal=0;startSize=0;swimlaneHead=0;swimlaneBody=0;strokeColor=inherit;top=0;left=0;bottom=0;right=0;collapsible=0;dropTarget=0;fillColor=none;points=[[0,0.5],[1,0.5]];portConstraint=eastwest;fontSize=16;" vertex="1" parent="gQomMeaBvaKWh9qNt1xV-302">
          <mxGeometry y="80" width="400.0000000000009" height="40" as="geometry" />
        </mxCell>
        <mxCell id="gQomMeaBvaKWh9qNt1xV-308" value="" style="shape=partialRectangle;html=1;whiteSpace=wrap;connectable=0;strokeColor=inherit;overflow=hidden;fillColor=none;top=0;left=0;bottom=0;right=0;pointerEvents=1;fontSize=16;" vertex="1" parent="gQomMeaBvaKWh9qNt1xV-307">
          <mxGeometry width="87" height="40" as="geometry">
            <mxRectangle width="87" height="40" as="alternateBounds" />
          </mxGeometry>
        </mxCell>
        <mxCell id="gQomMeaBvaKWh9qNt1xV-309" value="&lt;span style=&quot;font-family: Verdana; text-wrap-mode: nowrap;&quot;&gt;Name&lt;/span&gt;" style="shape=partialRectangle;html=1;whiteSpace=wrap;connectable=0;strokeColor=inherit;overflow=hidden;fillColor=none;top=0;left=0;bottom=0;right=0;pointerEvents=1;fontSize=13;align=left;" vertex="1" parent="gQomMeaBvaKWh9qNt1xV-307">
          <mxGeometry x="87" width="113" height="40" as="geometry">
            <mxRectangle width="113" height="40" as="alternateBounds" />
          </mxGeometry>
        </mxCell>
        <mxCell id="gQomMeaBvaKWh9qNt1xV-310" value="Single line of text" style="shape=partialRectangle;html=1;whiteSpace=wrap;connectable=0;strokeColor=inherit;overflow=hidden;fillColor=none;top=0;left=0;bottom=0;right=0;pointerEvents=1;fontSize=16;" vertex="1" parent="gQomMeaBvaKWh9qNt1xV-307">
          <mxGeometry x="200" width="200" height="40" as="geometry">
            <mxRectangle width="200" height="40" as="alternateBounds" />
          </mxGeometry>
        </mxCell>
        <mxCell id="gQomMeaBvaKWh9qNt1xV-311" value="Admin" style="shape=table;startSize=40;container=1;collapsible=0;childLayout=tableLayout;strokeColor=#6c8ebf;fontSize=16;fontFamily=Helvetica;align=center;fontStyle=1;fillColor=#dae8fc;gradientColor=none;swimlaneFillColor=default;" vertex="1" parent="1">
          <mxGeometry x="850" y="1110" width="400.0000000000009" height="120" as="geometry" />
        </mxCell>
        <mxCell id="gQomMeaBvaKWh9qNt1xV-312" value="" style="shape=tableRow;horizontal=0;startSize=0;swimlaneHead=0;swimlaneBody=0;strokeColor=inherit;top=0;left=0;bottom=0;right=0;collapsible=0;dropTarget=0;fillColor=none;points=[[0,0.5],[1,0.5]];portConstraint=eastwest;fontSize=16;" vertex="1" parent="gQomMeaBvaKWh9qNt1xV-311">
          <mxGeometry y="40" width="400.0000000000009" height="40" as="geometry" />
        </mxCell>
        <mxCell id="gQomMeaBvaKWh9qNt1xV-313" value="PK" style="shape=partialRectangle;html=1;whiteSpace=wrap;connectable=0;strokeColor=inherit;overflow=hidden;fillColor=none;top=0;left=0;bottom=0;right=0;pointerEvents=1;fontSize=16;align=center;" vertex="1" parent="gQomMeaBvaKWh9qNt1xV-312">
          <mxGeometry width="87" height="40" as="geometry">
            <mxRectangle width="87" height="40" as="alternateBounds" />
          </mxGeometry>
        </mxCell>
        <mxCell id="gQomMeaBvaKWh9qNt1xV-314" value="AdminID" style="shape=partialRectangle;html=1;whiteSpace=wrap;connectable=0;strokeColor=inherit;overflow=hidden;fillColor=none;top=0;left=0;bottom=0;right=0;pointerEvents=1;fontSize=13;align=left;" vertex="1" parent="gQomMeaBvaKWh9qNt1xV-312">
          <mxGeometry x="87" width="113" height="40" as="geometry">
            <mxRectangle width="113" height="40" as="alternateBounds" />
          </mxGeometry>
        </mxCell>
        <mxCell id="gQomMeaBvaKWh9qNt1xV-315" value="" style="shape=partialRectangle;html=1;whiteSpace=wrap;connectable=0;strokeColor=inherit;overflow=hidden;fillColor=none;top=0;left=0;bottom=0;right=0;pointerEvents=1;fontSize=16;" vertex="1" parent="gQomMeaBvaKWh9qNt1xV-312">
          <mxGeometry x="200" width="200" height="40" as="geometry">
            <mxRectangle width="200" height="40" as="alternateBounds" />
          </mxGeometry>
        </mxCell>
        <mxCell id="gQomMeaBvaKWh9qNt1xV-316" value="" style="shape=tableRow;horizontal=0;startSize=0;swimlaneHead=0;swimlaneBody=0;strokeColor=inherit;top=0;left=0;bottom=0;right=0;collapsible=0;dropTarget=0;fillColor=none;points=[[0,0.5],[1,0.5]];portConstraint=eastwest;fontSize=16;" vertex="1" parent="gQomMeaBvaKWh9qNt1xV-311">
          <mxGeometry y="80" width="400.0000000000009" height="40" as="geometry" />
        </mxCell>
        <mxCell id="gQomMeaBvaKWh9qNt1xV-317" value="" style="shape=partialRectangle;html=1;whiteSpace=wrap;connectable=0;strokeColor=inherit;overflow=hidden;fillColor=none;top=0;left=0;bottom=0;right=0;pointerEvents=1;fontSize=16;" vertex="1" parent="gQomMeaBvaKWh9qNt1xV-316">
          <mxGeometry width="87" height="40" as="geometry">
            <mxRectangle width="87" height="40" as="alternateBounds" />
          </mxGeometry>
        </mxCell>
        <mxCell id="gQomMeaBvaKWh9qNt1xV-318" value="&lt;span style=&quot;font-family: Verdana; text-wrap-mode: nowrap;&quot;&gt;Name&lt;/span&gt;" style="shape=partialRectangle;html=1;whiteSpace=wrap;connectable=0;strokeColor=inherit;overflow=hidden;fillColor=none;top=0;left=0;bottom=0;right=0;pointerEvents=1;fontSize=13;align=left;" vertex="1" parent="gQomMeaBvaKWh9qNt1xV-316">
          <mxGeometry x="87" width="113" height="40" as="geometry">
            <mxRectangle width="113" height="40" as="alternateBounds" />
          </mxGeometry>
        </mxCell>
        <mxCell id="gQomMeaBvaKWh9qNt1xV-319" value="Single line of text" style="shape=partialRectangle;html=1;whiteSpace=wrap;connectable=0;strokeColor=inherit;overflow=hidden;fillColor=none;top=0;left=0;bottom=0;right=0;pointerEvents=1;fontSize=16;" vertex="1" parent="gQomMeaBvaKWh9qNt1xV-316">
          <mxGeometry x="200" width="200" height="40" as="geometry">
            <mxRectangle width="200" height="40" as="alternateBounds" />
          </mxGeometry>
        </mxCell>
        <mxCell id="gQomMeaBvaKWh9qNt1xV-368" value="Course" style="shape=table;startSize=40;container=1;collapsible=0;childLayout=tableLayout;strokeColor=#6c8ebf;fontSize=16;fontFamily=Helvetica;align=center;fontStyle=1;fillColor=#dae8fc;gradientColor=none;swimlaneFillColor=default;" vertex="1" parent="1">
          <mxGeometry x="850" y="1270" width="400.0000000000009" height="119.99999999999909" as="geometry" />
        </mxCell>
        <mxCell id="gQomMeaBvaKWh9qNt1xV-369" value="" style="shape=tableRow;horizontal=0;startSize=0;swimlaneHead=0;swimlaneBody=0;strokeColor=inherit;top=0;left=0;bottom=0;right=0;collapsible=0;dropTarget=0;fillColor=none;points=[[0,0.5],[1,0.5]];portConstraint=eastwest;fontSize=16;" vertex="1" parent="gQomMeaBvaKWh9qNt1xV-368">
          <mxGeometry y="40" width="400.0000000000009" height="40" as="geometry" />
        </mxCell>
        <mxCell id="gQomMeaBvaKWh9qNt1xV-370" value="PK" style="shape=partialRectangle;html=1;whiteSpace=wrap;connectable=0;strokeColor=inherit;overflow=hidden;fillColor=none;top=0;left=0;bottom=0;right=0;pointerEvents=1;fontSize=16;align=center;" vertex="1" parent="gQomMeaBvaKWh9qNt1xV-369">
          <mxGeometry width="87" height="40" as="geometry">
            <mxRectangle width="87" height="40" as="alternateBounds" />
          </mxGeometry>
        </mxCell>
        <mxCell id="gQomMeaBvaKWh9qNt1xV-371" value="CourseID" style="shape=partialRectangle;html=1;whiteSpace=wrap;connectable=0;strokeColor=inherit;overflow=hidden;fillColor=none;top=0;left=0;bottom=0;right=0;pointerEvents=1;fontSize=13;align=left;" vertex="1" parent="gQomMeaBvaKWh9qNt1xV-369">
          <mxGeometry x="87" width="113" height="40" as="geometry">
            <mxRectangle width="113" height="40" as="alternateBounds" />
          </mxGeometry>
        </mxCell>
        <mxCell id="gQomMeaBvaKWh9qNt1xV-372" value="" style="shape=partialRectangle;html=1;whiteSpace=wrap;connectable=0;strokeColor=inherit;overflow=hidden;fillColor=none;top=0;left=0;bottom=0;right=0;pointerEvents=1;fontSize=16;" vertex="1" parent="gQomMeaBvaKWh9qNt1xV-369">
          <mxGeometry x="200" width="200" height="40" as="geometry">
            <mxRectangle width="200" height="40" as="alternateBounds" />
          </mxGeometry>
        </mxCell>
        <mxCell id="gQomMeaBvaKWh9qNt1xV-373" value="" style="shape=tableRow;horizontal=0;startSize=0;swimlaneHead=0;swimlaneBody=0;strokeColor=inherit;top=0;left=0;bottom=0;right=0;collapsible=0;dropTarget=0;fillColor=none;points=[[0,0.5],[1,0.5]];portConstraint=eastwest;fontSize=16;" vertex="1" parent="gQomMeaBvaKWh9qNt1xV-368">
          <mxGeometry y="80" width="400.0000000000009" height="40" as="geometry" />
        </mxCell>
        <mxCell id="gQomMeaBvaKWh9qNt1xV-374" value="" style="shape=partialRectangle;html=1;whiteSpace=wrap;connectable=0;strokeColor=inherit;overflow=hidden;fillColor=none;top=0;left=0;bottom=0;right=0;pointerEvents=1;fontSize=16;" vertex="1" parent="gQomMeaBvaKWh9qNt1xV-373">
          <mxGeometry width="87" height="40" as="geometry">
            <mxRectangle width="87" height="40" as="alternateBounds" />
          </mxGeometry>
        </mxCell>
        <mxCell id="gQomMeaBvaKWh9qNt1xV-375" value="&lt;span style=&quot;font-family: Verdana; text-wrap-mode: nowrap;&quot;&gt;Name&lt;/span&gt;" style="shape=partialRectangle;html=1;whiteSpace=wrap;connectable=0;strokeColor=inherit;overflow=hidden;fillColor=none;top=0;left=0;bottom=0;right=0;pointerEvents=1;fontSize=13;align=left;" vertex="1" parent="gQomMeaBvaKWh9qNt1xV-373">
          <mxGeometry x="87" width="113" height="40" as="geometry">
            <mxRectangle width="113" height="40" as="alternateBounds" />
          </mxGeometry>
        </mxCell>
        <mxCell id="gQomMeaBvaKWh9qNt1xV-376" value="Single line of text" style="shape=partialRectangle;html=1;whiteSpace=wrap;connectable=0;strokeColor=inherit;overflow=hidden;fillColor=none;top=0;left=0;bottom=0;right=0;pointerEvents=1;fontSize=16;" vertex="1" parent="gQomMeaBvaKWh9qNt1xV-373">
          <mxGeometry x="200" width="200" height="40" as="geometry">
            <mxRectangle width="200" height="40" as="alternateBounds" />
          </mxGeometry>
        </mxCell>
        <mxCell id="gQomMeaBvaKWh9qNt1xV-426" value="YearStatus" style="shape=table;startSize=25;container=1;collapsible=0;childLayout=tableLayout;strokeColor=#6c8ebf;fontSize=16;fontFamily=Helvetica;align=center;fontStyle=1;fillColor=#dae8fc;gradientColor=none;swimlaneFillColor=default;" vertex="1" parent="1">
          <mxGeometry x="360" y="1160" width="400.0000000000009" height="110" as="geometry" />
        </mxCell>
        <mxCell id="gQomMeaBvaKWh9qNt1xV-427" value="" style="shape=tableRow;horizontal=0;startSize=0;swimlaneHead=0;swimlaneBody=0;strokeColor=inherit;top=0;left=0;bottom=0;right=0;collapsible=0;dropTarget=0;fillColor=none;points=[[0,0.5],[1,0.5]];portConstraint=eastwest;fontSize=16;" vertex="1" parent="gQomMeaBvaKWh9qNt1xV-426">
          <mxGeometry y="25" width="400.0000000000009" height="43" as="geometry" />
        </mxCell>
        <mxCell id="gQomMeaBvaKWh9qNt1xV-428" value="PK" style="shape=partialRectangle;html=1;whiteSpace=wrap;connectable=0;strokeColor=inherit;overflow=hidden;fillColor=none;top=0;left=0;bottom=0;right=0;pointerEvents=1;fontSize=16;align=center;" vertex="1" parent="gQomMeaBvaKWh9qNt1xV-427">
          <mxGeometry width="87" height="43" as="geometry">
            <mxRectangle width="87" height="43" as="alternateBounds" />
          </mxGeometry>
        </mxCell>
        <mxCell id="gQomMeaBvaKWh9qNt1xV-429" value="YearStatusID" style="shape=partialRectangle;html=1;whiteSpace=wrap;connectable=0;strokeColor=inherit;overflow=hidden;fillColor=none;top=0;left=0;bottom=0;right=0;pointerEvents=1;fontSize=13;align=left;" vertex="1" parent="gQomMeaBvaKWh9qNt1xV-427">
          <mxGeometry x="87" width="113" height="43" as="geometry">
            <mxRectangle width="113" height="43" as="alternateBounds" />
          </mxGeometry>
        </mxCell>
        <mxCell id="gQomMeaBvaKWh9qNt1xV-430" value="" style="shape=partialRectangle;html=1;whiteSpace=wrap;connectable=0;strokeColor=inherit;overflow=hidden;fillColor=none;top=0;left=0;bottom=0;right=0;pointerEvents=1;fontSize=16;" vertex="1" parent="gQomMeaBvaKWh9qNt1xV-427">
          <mxGeometry x="200" width="200" height="43" as="geometry">
            <mxRectangle width="200" height="43" as="alternateBounds" />
          </mxGeometry>
        </mxCell>
        <mxCell id="gQomMeaBvaKWh9qNt1xV-431" value="" style="shape=tableRow;horizontal=0;startSize=0;swimlaneHead=0;swimlaneBody=0;strokeColor=inherit;top=0;left=0;bottom=0;right=0;collapsible=0;dropTarget=0;fillColor=none;points=[[0,0.5],[1,0.5]];portConstraint=eastwest;fontSize=16;" vertex="1" parent="gQomMeaBvaKWh9qNt1xV-426">
          <mxGeometry y="68" width="400.0000000000009" height="42" as="geometry" />
        </mxCell>
        <mxCell id="gQomMeaBvaKWh9qNt1xV-432" value="Current, Future, Past" style="shape=partialRectangle;html=1;whiteSpace=wrap;connectable=0;strokeColor=inherit;overflow=hidden;fillColor=none;top=0;left=0;bottom=0;right=0;pointerEvents=1;fontSize=16;" vertex="1" parent="gQomMeaBvaKWh9qNt1xV-431">
          <mxGeometry width="87" height="42" as="geometry">
            <mxRectangle width="87" height="42" as="alternateBounds" />
          </mxGeometry>
        </mxCell>
        <mxCell id="gQomMeaBvaKWh9qNt1xV-433" value="&lt;span style=&quot;font-family: Verdana; text-wrap-mode: nowrap;&quot;&gt;Name&lt;/span&gt;" style="shape=partialRectangle;html=1;whiteSpace=wrap;connectable=0;strokeColor=inherit;overflow=hidden;fillColor=none;top=0;left=0;bottom=0;right=0;pointerEvents=1;fontSize=13;align=left;" vertex="1" parent="gQomMeaBvaKWh9qNt1xV-431">
          <mxGeometry x="87" width="113" height="42" as="geometry">
            <mxRectangle width="113" height="42" as="alternateBounds" />
          </mxGeometry>
        </mxCell>
        <mxCell id="gQomMeaBvaKWh9qNt1xV-434" value="Single line of text" style="shape=partialRectangle;html=1;whiteSpace=wrap;connectable=0;strokeColor=inherit;overflow=hidden;fillColor=none;top=0;left=0;bottom=0;right=0;pointerEvents=1;fontSize=16;" vertex="1" parent="gQomMeaBvaKWh9qNt1xV-431">
          <mxGeometry x="200" width="200" height="42" as="geometry">
            <mxRectangle width="200" height="42" as="alternateBounds" />
          </mxGeometry>
        </mxCell>
        <mxCell id="gQomMeaBvaKWh9qNt1xV-435" value="YearType" style="shape=table;startSize=25;container=1;collapsible=0;childLayout=tableLayout;strokeColor=#6c8ebf;fontSize=16;fontFamily=Helvetica;align=center;fontStyle=1;fillColor=#dae8fc;gradientColor=none;swimlaneFillColor=default;" vertex="1" parent="1">
          <mxGeometry x="360" y="1290" width="400.0000000000009" height="110" as="geometry" />
        </mxCell>
        <mxCell id="gQomMeaBvaKWh9qNt1xV-436" value="" style="shape=tableRow;horizontal=0;startSize=0;swimlaneHead=0;swimlaneBody=0;strokeColor=inherit;top=0;left=0;bottom=0;right=0;collapsible=0;dropTarget=0;fillColor=none;points=[[0,0.5],[1,0.5]];portConstraint=eastwest;fontSize=16;" vertex="1" parent="gQomMeaBvaKWh9qNt1xV-435">
          <mxGeometry y="25" width="400.0000000000009" height="43" as="geometry" />
        </mxCell>
        <mxCell id="gQomMeaBvaKWh9qNt1xV-437" value="PK" style="shape=partialRectangle;html=1;whiteSpace=wrap;connectable=0;strokeColor=inherit;overflow=hidden;fillColor=none;top=0;left=0;bottom=0;right=0;pointerEvents=1;fontSize=16;align=center;" vertex="1" parent="gQomMeaBvaKWh9qNt1xV-436">
          <mxGeometry width="87" height="43" as="geometry">
            <mxRectangle width="87" height="43" as="alternateBounds" />
          </mxGeometry>
        </mxCell>
        <mxCell id="gQomMeaBvaKWh9qNt1xV-438" value="RosterIID" style="shape=partialRectangle;html=1;whiteSpace=wrap;connectable=0;strokeColor=inherit;overflow=hidden;fillColor=none;top=0;left=0;bottom=0;right=0;pointerEvents=1;fontSize=13;align=left;" vertex="1" parent="gQomMeaBvaKWh9qNt1xV-436">
          <mxGeometry x="87" width="113" height="43" as="geometry">
            <mxRectangle width="113" height="43" as="alternateBounds" />
          </mxGeometry>
        </mxCell>
        <mxCell id="gQomMeaBvaKWh9qNt1xV-439" value="" style="shape=partialRectangle;html=1;whiteSpace=wrap;connectable=0;strokeColor=inherit;overflow=hidden;fillColor=none;top=0;left=0;bottom=0;right=0;pointerEvents=1;fontSize=16;" vertex="1" parent="gQomMeaBvaKWh9qNt1xV-436">
          <mxGeometry x="200" width="200" height="43" as="geometry">
            <mxRectangle width="200" height="43" as="alternateBounds" />
          </mxGeometry>
        </mxCell>
        <mxCell id="gQomMeaBvaKWh9qNt1xV-440" value="" style="shape=tableRow;horizontal=0;startSize=0;swimlaneHead=0;swimlaneBody=0;strokeColor=inherit;top=0;left=0;bottom=0;right=0;collapsible=0;dropTarget=0;fillColor=none;points=[[0,0.5],[1,0.5]];portConstraint=eastwest;fontSize=16;" vertex="1" parent="gQomMeaBvaKWh9qNt1xV-435">
          <mxGeometry y="68" width="400.0000000000009" height="42" as="geometry" />
        </mxCell>
        <mxCell id="gQomMeaBvaKWh9qNt1xV-441" value="Night, Regular, Summer&lt;div&gt;&lt;br&gt;&lt;/div&gt;" style="shape=partialRectangle;html=1;whiteSpace=wrap;connectable=0;strokeColor=inherit;overflow=hidden;fillColor=none;top=0;left=0;bottom=0;right=0;pointerEvents=1;fontSize=16;" vertex="1" parent="gQomMeaBvaKWh9qNt1xV-440">
          <mxGeometry width="87" height="42" as="geometry">
            <mxRectangle width="87" height="42" as="alternateBounds" />
          </mxGeometry>
        </mxCell>
        <mxCell id="gQomMeaBvaKWh9qNt1xV-442" value="&lt;span style=&quot;font-family: Verdana; text-wrap-mode: nowrap;&quot;&gt;Name&lt;/span&gt;" style="shape=partialRectangle;html=1;whiteSpace=wrap;connectable=0;strokeColor=inherit;overflow=hidden;fillColor=none;top=0;left=0;bottom=0;right=0;pointerEvents=1;fontSize=13;align=left;" vertex="1" parent="gQomMeaBvaKWh9qNt1xV-440">
          <mxGeometry x="87" width="113" height="42" as="geometry">
            <mxRectangle width="113" height="42" as="alternateBounds" />
          </mxGeometry>
        </mxCell>
        <mxCell id="gQomMeaBvaKWh9qNt1xV-443" value="Single line of text" style="shape=partialRectangle;html=1;whiteSpace=wrap;connectable=0;strokeColor=inherit;overflow=hidden;fillColor=none;top=0;left=0;bottom=0;right=0;pointerEvents=1;fontSize=16;" vertex="1" parent="gQomMeaBvaKWh9qNt1xV-440">
          <mxGeometry x="200" width="200" height="42" as="geometry">
            <mxRectangle width="200" height="42" as="alternateBounds" />
          </mxGeometry>
        </mxCell>
        <mxCell id="gQomMeaBvaKWh9qNt1xV-444" value="UserStatus" style="shape=table;startSize=30;container=1;collapsible=0;childLayout=tableLayout;strokeColor=#6c8ebf;fontSize=16;fontFamily=Helvetica;align=center;fontStyle=1;fillColor=#dae8fc;gradientColor=none;swimlaneFillColor=default;" vertex="1" parent="1">
          <mxGeometry x="360" y="1420" width="400.0000000000009" height="110" as="geometry" />
        </mxCell>
        <mxCell id="gQomMeaBvaKWh9qNt1xV-445" value="" style="shape=tableRow;horizontal=0;startSize=0;swimlaneHead=0;swimlaneBody=0;strokeColor=inherit;top=0;left=0;bottom=0;right=0;collapsible=0;dropTarget=0;fillColor=none;points=[[0,0.5],[1,0.5]];portConstraint=eastwest;fontSize=16;" vertex="1" parent="gQomMeaBvaKWh9qNt1xV-444">
          <mxGeometry y="30" width="400.0000000000009" height="40" as="geometry" />
        </mxCell>
        <mxCell id="gQomMeaBvaKWh9qNt1xV-446" value="PK" style="shape=partialRectangle;html=1;whiteSpace=wrap;connectable=0;strokeColor=inherit;overflow=hidden;fillColor=none;top=0;left=0;bottom=0;right=0;pointerEvents=1;fontSize=16;align=center;" vertex="1" parent="gQomMeaBvaKWh9qNt1xV-445">
          <mxGeometry width="87" height="40" as="geometry">
            <mxRectangle width="87" height="40" as="alternateBounds" />
          </mxGeometry>
        </mxCell>
        <mxCell id="gQomMeaBvaKWh9qNt1xV-447" value="UserStatusID" style="shape=partialRectangle;html=1;whiteSpace=wrap;connectable=0;strokeColor=inherit;overflow=hidden;fillColor=none;top=0;left=0;bottom=0;right=0;pointerEvents=1;fontSize=13;align=left;" vertex="1" parent="gQomMeaBvaKWh9qNt1xV-445">
          <mxGeometry x="87" width="113" height="40" as="geometry">
            <mxRectangle width="113" height="40" as="alternateBounds" />
          </mxGeometry>
        </mxCell>
        <mxCell id="gQomMeaBvaKWh9qNt1xV-448" value="" style="shape=partialRectangle;html=1;whiteSpace=wrap;connectable=0;strokeColor=inherit;overflow=hidden;fillColor=none;top=0;left=0;bottom=0;right=0;pointerEvents=1;fontSize=16;" vertex="1" parent="gQomMeaBvaKWh9qNt1xV-445">
          <mxGeometry x="200" width="200" height="40" as="geometry">
            <mxRectangle width="200" height="40" as="alternateBounds" />
          </mxGeometry>
        </mxCell>
        <mxCell id="gQomMeaBvaKWh9qNt1xV-449" value="" style="shape=tableRow;horizontal=0;startSize=0;swimlaneHead=0;swimlaneBody=0;strokeColor=inherit;top=0;left=0;bottom=0;right=0;collapsible=0;dropTarget=0;fillColor=none;points=[[0,0.5],[1,0.5]];portConstraint=eastwest;fontSize=16;" vertex="1" parent="gQomMeaBvaKWh9qNt1xV-444">
          <mxGeometry y="70" width="400.0000000000009" height="40" as="geometry" />
        </mxCell>
        <mxCell id="gQomMeaBvaKWh9qNt1xV-450" value="Active, Graduated, Inactive" style="shape=partialRectangle;html=1;whiteSpace=wrap;connectable=0;strokeColor=inherit;overflow=hidden;fillColor=none;top=0;left=0;bottom=0;right=0;pointerEvents=1;fontSize=16;" vertex="1" parent="gQomMeaBvaKWh9qNt1xV-449">
          <mxGeometry width="87" height="40" as="geometry">
            <mxRectangle width="87" height="40" as="alternateBounds" />
          </mxGeometry>
        </mxCell>
        <mxCell id="gQomMeaBvaKWh9qNt1xV-451" value="&lt;span style=&quot;font-family: Verdana; text-wrap-mode: nowrap;&quot;&gt;Name&lt;/span&gt;" style="shape=partialRectangle;html=1;whiteSpace=wrap;connectable=0;strokeColor=inherit;overflow=hidden;fillColor=none;top=0;left=0;bottom=0;right=0;pointerEvents=1;fontSize=13;align=left;" vertex="1" parent="gQomMeaBvaKWh9qNt1xV-449">
          <mxGeometry x="87" width="113" height="40" as="geometry">
            <mxRectangle width="113" height="40" as="alternateBounds" />
          </mxGeometry>
        </mxCell>
        <mxCell id="gQomMeaBvaKWh9qNt1xV-452" value="Single line of text" style="shape=partialRectangle;html=1;whiteSpace=wrap;connectable=0;strokeColor=inherit;overflow=hidden;fillColor=none;top=0;left=0;bottom=0;right=0;pointerEvents=1;fontSize=16;" vertex="1" parent="gQomMeaBvaKWh9qNt1xV-449">
          <mxGeometry x="200" width="200" height="40" as="geometry">
            <mxRectangle width="200" height="40" as="alternateBounds" />
          </mxGeometry>
        </mxCell>
        <mxCell id="gQomMeaBvaKWh9qNt1xV-453" value="JobTitle" style="shape=table;startSize=40;container=1;collapsible=0;childLayout=tableLayout;strokeColor=#6c8ebf;fontSize=16;fontFamily=Helvetica;align=center;fontStyle=1;fillColor=#dae8fc;gradientColor=none;swimlaneFillColor=default;" vertex="1" parent="1">
          <mxGeometry x="850" y="630" width="400.0000000000009" height="120" as="geometry" />
        </mxCell>
        <mxCell id="gQomMeaBvaKWh9qNt1xV-454" value="" style="shape=tableRow;horizontal=0;startSize=0;swimlaneHead=0;swimlaneBody=0;strokeColor=inherit;top=0;left=0;bottom=0;right=0;collapsible=0;dropTarget=0;fillColor=none;points=[[0,0.5],[1,0.5]];portConstraint=eastwest;fontSize=16;" vertex="1" parent="gQomMeaBvaKWh9qNt1xV-453">
          <mxGeometry y="40" width="400.0000000000009" height="40" as="geometry" />
        </mxCell>
        <mxCell id="gQomMeaBvaKWh9qNt1xV-455" value="PK" style="shape=partialRectangle;html=1;whiteSpace=wrap;connectable=0;strokeColor=inherit;overflow=hidden;fillColor=none;top=0;left=0;bottom=0;right=0;pointerEvents=1;fontSize=16;align=center;" vertex="1" parent="gQomMeaBvaKWh9qNt1xV-454">
          <mxGeometry width="87" height="40" as="geometry">
            <mxRectangle width="87" height="40" as="alternateBounds" />
          </mxGeometry>
        </mxCell>
        <mxCell id="gQomMeaBvaKWh9qNt1xV-456" value="JobTitleID" style="shape=partialRectangle;html=1;whiteSpace=wrap;connectable=0;strokeColor=inherit;overflow=hidden;fillColor=none;top=0;left=0;bottom=0;right=0;pointerEvents=1;fontSize=13;align=left;" vertex="1" parent="gQomMeaBvaKWh9qNt1xV-454">
          <mxGeometry x="87" width="113" height="40" as="geometry">
            <mxRectangle width="113" height="40" as="alternateBounds" />
          </mxGeometry>
        </mxCell>
        <mxCell id="gQomMeaBvaKWh9qNt1xV-457" value="" style="shape=partialRectangle;html=1;whiteSpace=wrap;connectable=0;strokeColor=inherit;overflow=hidden;fillColor=none;top=0;left=0;bottom=0;right=0;pointerEvents=1;fontSize=16;" vertex="1" parent="gQomMeaBvaKWh9qNt1xV-454">
          <mxGeometry x="200" width="200" height="40" as="geometry">
            <mxRectangle width="200" height="40" as="alternateBounds" />
          </mxGeometry>
        </mxCell>
        <mxCell id="gQomMeaBvaKWh9qNt1xV-458" value="" style="shape=tableRow;horizontal=0;startSize=0;swimlaneHead=0;swimlaneBody=0;strokeColor=inherit;top=0;left=0;bottom=0;right=0;collapsible=0;dropTarget=0;fillColor=none;points=[[0,0.5],[1,0.5]];portConstraint=eastwest;fontSize=16;" vertex="1" parent="gQomMeaBvaKWh9qNt1xV-453">
          <mxGeometry y="80" width="400.0000000000009" height="40" as="geometry" />
        </mxCell>
        <mxCell id="gQomMeaBvaKWh9qNt1xV-459" value="" style="shape=partialRectangle;html=1;whiteSpace=wrap;connectable=0;strokeColor=inherit;overflow=hidden;fillColor=none;top=0;left=0;bottom=0;right=0;pointerEvents=1;fontSize=16;" vertex="1" parent="gQomMeaBvaKWh9qNt1xV-458">
          <mxGeometry width="87" height="40" as="geometry">
            <mxRectangle width="87" height="40" as="alternateBounds" />
          </mxGeometry>
        </mxCell>
        <mxCell id="gQomMeaBvaKWh9qNt1xV-460" value="&lt;span style=&quot;font-family: Verdana; text-wrap-mode: nowrap;&quot;&gt;Name&lt;/span&gt;" style="shape=partialRectangle;html=1;whiteSpace=wrap;connectable=0;strokeColor=inherit;overflow=hidden;fillColor=none;top=0;left=0;bottom=0;right=0;pointerEvents=1;fontSize=13;align=left;" vertex="1" parent="gQomMeaBvaKWh9qNt1xV-458">
          <mxGeometry x="87" width="113" height="40" as="geometry">
            <mxRectangle width="113" height="40" as="alternateBounds" />
          </mxGeometry>
        </mxCell>
        <mxCell id="gQomMeaBvaKWh9qNt1xV-461" value="Single line of text" style="shape=partialRectangle;html=1;whiteSpace=wrap;connectable=0;strokeColor=inherit;overflow=hidden;fillColor=none;top=0;left=0;bottom=0;right=0;pointerEvents=1;fontSize=16;" vertex="1" parent="gQomMeaBvaKWh9qNt1xV-458">
          <mxGeometry x="200" width="200" height="40" as="geometry">
            <mxRectangle width="200" height="40" as="alternateBounds" />
          </mxGeometry>
        </mxCell>
        <mxCell id="gQomMeaBvaKWh9qNt1xV-462" value="AcademicYear" style="shape=table;startSize=40;container=1;collapsible=0;childLayout=tableLayout;strokeColor=#6c8ebf;fontSize=16;fontFamily=Helvetica;align=center;fontStyle=1;fillColor=#dae8fc;gradientColor=none;swimlaneFillColor=default;" vertex="1" parent="1">
          <mxGeometry x="-120" y="960" width="400.0000000000009" height="120" as="geometry" />
        </mxCell>
        <mxCell id="gQomMeaBvaKWh9qNt1xV-463" value="" style="shape=tableRow;horizontal=0;startSize=0;swimlaneHead=0;swimlaneBody=0;strokeColor=inherit;top=0;left=0;bottom=0;right=0;collapsible=0;dropTarget=0;fillColor=none;points=[[0,0.5],[1,0.5]];portConstraint=eastwest;fontSize=16;" vertex="1" parent="gQomMeaBvaKWh9qNt1xV-462">
          <mxGeometry y="40" width="400.0000000000009" height="40" as="geometry" />
        </mxCell>
        <mxCell id="gQomMeaBvaKWh9qNt1xV-464" value="PK" style="shape=partialRectangle;html=1;whiteSpace=wrap;connectable=0;strokeColor=inherit;overflow=hidden;fillColor=none;top=0;left=0;bottom=0;right=0;pointerEvents=1;fontSize=16;align=center;" vertex="1" parent="gQomMeaBvaKWh9qNt1xV-463">
          <mxGeometry width="87" height="40" as="geometry">
            <mxRectangle width="87" height="40" as="alternateBounds" />
          </mxGeometry>
        </mxCell>
        <mxCell id="gQomMeaBvaKWh9qNt1xV-465" value="&lt;h1 style=&quot;box-sizing: border-box; margin: 0px; font-family: &amp;quot;Segoe UI&amp;quot;, &amp;quot;Segoe UI Web (West European)&amp;quot;, &amp;quot;Segoe UI&amp;quot;, -apple-system, BlinkMacSystemFont, Roboto, &amp;quot;Helvetica Neue&amp;quot;, sans-serif; -webkit-font-smoothing: antialiased; font-size: 13px; color: rgb(50, 49, 48); outline: transparent; background: none rgb(255, 255, 255); border-top: none; border-right: none; border-left: none; border-image: initial; cursor: pointer; display: inline; overflow: hidden; padding: 0px 8px; text-overflow: ellipsis; border-bottom: 1px solid transparent; position: relative; text-wrap-mode: nowrap; line-height: 36px; user-select: text;&quot; class=&quot;ms-Link ms-Breadcrumb-itemLink itemLink-1463&quot; title=&quot;AcademicYear&quot;&gt;&lt;div style=&quot;box-sizing: border-box; margin: 0px; display: inline; font-size: 13px;&quot; role=&quot;none&quot; class=&quot;ms-TooltipHost root-994&quot;&gt;AcademicYearID&lt;/div&gt;&lt;/h1&gt;" style="shape=partialRectangle;html=1;whiteSpace=wrap;connectable=0;strokeColor=inherit;overflow=hidden;fillColor=none;top=0;left=0;bottom=0;right=0;pointerEvents=1;fontSize=13;align=left;" vertex="1" parent="gQomMeaBvaKWh9qNt1xV-463">
          <mxGeometry x="87" width="113" height="40" as="geometry">
            <mxRectangle width="113" height="40" as="alternateBounds" />
          </mxGeometry>
        </mxCell>
        <mxCell id="gQomMeaBvaKWh9qNt1xV-466" value="" style="shape=partialRectangle;html=1;whiteSpace=wrap;connectable=0;strokeColor=inherit;overflow=hidden;fillColor=none;top=0;left=0;bottom=0;right=0;pointerEvents=1;fontSize=16;" vertex="1" parent="gQomMeaBvaKWh9qNt1xV-463">
          <mxGeometry x="200" width="200" height="40" as="geometry">
            <mxRectangle width="200" height="40" as="alternateBounds" />
          </mxGeometry>
        </mxCell>
        <mxCell id="gQomMeaBvaKWh9qNt1xV-467" value="" style="shape=tableRow;horizontal=0;startSize=0;swimlaneHead=0;swimlaneBody=0;strokeColor=inherit;top=0;left=0;bottom=0;right=0;collapsible=0;dropTarget=0;fillColor=none;points=[[0,0.5],[1,0.5]];portConstraint=eastwest;fontSize=16;" vertex="1" parent="gQomMeaBvaKWh9qNt1xV-462">
          <mxGeometry y="80" width="400.0000000000009" height="40" as="geometry" />
        </mxCell>
        <mxCell id="gQomMeaBvaKWh9qNt1xV-468" value="2425, 2526,&amp;nbsp;&lt;span style=&quot;background-color: initial;&quot;&gt;2627&lt;/span&gt;" style="shape=partialRectangle;html=1;whiteSpace=wrap;connectable=0;strokeColor=inherit;overflow=hidden;fillColor=none;top=0;left=0;bottom=0;right=0;pointerEvents=1;fontSize=16;" vertex="1" parent="gQomMeaBvaKWh9qNt1xV-467">
          <mxGeometry width="87" height="40" as="geometry">
            <mxRectangle width="87" height="40" as="alternateBounds" />
          </mxGeometry>
        </mxCell>
        <mxCell id="gQomMeaBvaKWh9qNt1xV-469" value="&lt;span style=&quot;font-family: Verdana; text-wrap-mode: nowrap;&quot;&gt;Name&lt;/span&gt;" style="shape=partialRectangle;html=1;whiteSpace=wrap;connectable=0;strokeColor=inherit;overflow=hidden;fillColor=none;top=0;left=0;bottom=0;right=0;pointerEvents=1;fontSize=13;align=left;" vertex="1" parent="gQomMeaBvaKWh9qNt1xV-467">
          <mxGeometry x="87" width="113" height="40" as="geometry">
            <mxRectangle width="113" height="40" as="alternateBounds" />
          </mxGeometry>
        </mxCell>
        <mxCell id="gQomMeaBvaKWh9qNt1xV-470" value="Single line of text" style="shape=partialRectangle;html=1;whiteSpace=wrap;connectable=0;strokeColor=inherit;overflow=hidden;fillColor=none;top=0;left=0;bottom=0;right=0;pointerEvents=1;fontSize=16;" vertex="1" parent="gQomMeaBvaKWh9qNt1xV-467">
          <mxGeometry x="200" width="200" height="40" as="geometry">
            <mxRectangle width="200" height="40" as="alternateBounds" />
          </mxGeometry>
        </mxCell>
        <mxCell id="gQomMeaBvaKWh9qNt1xV-489" value="Roster" style="shape=table;startSize=30;container=1;collapsible=0;childLayout=tableLayout;strokeColor=#6c8ebf;fontSize=16;fontFamily=Helvetica;align=center;fontStyle=1;fillColor=#dae8fc;gradientColor=none;swimlaneFillColor=default;" vertex="1" parent="1">
          <mxGeometry x="350" y="890" width="400.0000000000009" height="190" as="geometry" />
        </mxCell>
        <mxCell id="gQomMeaBvaKWh9qNt1xV-490" value="" style="shape=tableRow;horizontal=0;startSize=0;swimlaneHead=0;swimlaneBody=0;strokeColor=inherit;top=0;left=0;bottom=0;right=0;collapsible=0;dropTarget=0;fillColor=none;points=[[0,0.5],[1,0.5]];portConstraint=eastwest;fontSize=16;" vertex="1" parent="gQomMeaBvaKWh9qNt1xV-489">
          <mxGeometry y="30" width="400.0000000000009" height="40" as="geometry" />
        </mxCell>
        <mxCell id="gQomMeaBvaKWh9qNt1xV-491" value="PK" style="shape=partialRectangle;html=1;whiteSpace=wrap;connectable=0;strokeColor=inherit;overflow=hidden;fillColor=none;top=0;left=0;bottom=0;right=0;pointerEvents=1;fontSize=16;align=center;" vertex="1" parent="gQomMeaBvaKWh9qNt1xV-490">
          <mxGeometry width="87" height="40" as="geometry">
            <mxRectangle width="87" height="40" as="alternateBounds" />
          </mxGeometry>
        </mxCell>
        <mxCell id="gQomMeaBvaKWh9qNt1xV-492" value="RosterID" style="shape=partialRectangle;html=1;whiteSpace=wrap;connectable=0;strokeColor=inherit;overflow=hidden;fillColor=none;top=0;left=0;bottom=0;right=0;pointerEvents=1;fontSize=13;align=left;" vertex="1" parent="gQomMeaBvaKWh9qNt1xV-490">
          <mxGeometry x="87" width="113" height="40" as="geometry">
            <mxRectangle width="113" height="40" as="alternateBounds" />
          </mxGeometry>
        </mxCell>
        <mxCell id="gQomMeaBvaKWh9qNt1xV-493" value="" style="shape=partialRectangle;html=1;whiteSpace=wrap;connectable=0;strokeColor=inherit;overflow=hidden;fillColor=none;top=0;left=0;bottom=0;right=0;pointerEvents=1;fontSize=16;" vertex="1" parent="gQomMeaBvaKWh9qNt1xV-490">
          <mxGeometry x="200" width="200" height="40" as="geometry">
            <mxRectangle width="200" height="40" as="alternateBounds" />
          </mxGeometry>
        </mxCell>
        <mxCell id="gQomMeaBvaKWh9qNt1xV-494" value="" style="shape=tableRow;horizontal=0;startSize=0;swimlaneHead=0;swimlaneBody=0;strokeColor=inherit;top=0;left=0;bottom=0;right=0;collapsible=0;dropTarget=0;fillColor=none;points=[[0,0.5],[1,0.5]];portConstraint=eastwest;fontSize=16;" vertex="1" parent="gQomMeaBvaKWh9qNt1xV-489">
          <mxGeometry y="70" width="400.0000000000009" height="40" as="geometry" />
        </mxCell>
        <mxCell id="gQomMeaBvaKWh9qNt1xV-495" value="" style="shape=partialRectangle;html=1;whiteSpace=wrap;connectable=0;strokeColor=inherit;overflow=hidden;fillColor=none;top=0;left=0;bottom=0;right=0;pointerEvents=1;fontSize=16;" vertex="1" parent="gQomMeaBvaKWh9qNt1xV-494">
          <mxGeometry width="87" height="40" as="geometry">
            <mxRectangle width="87" height="40" as="alternateBounds" />
          </mxGeometry>
        </mxCell>
        <mxCell id="gQomMeaBvaKWh9qNt1xV-496" value="&lt;span style=&quot;font-family: Verdana; text-wrap-mode: nowrap;&quot;&gt;Name&lt;/span&gt;" style="shape=partialRectangle;html=1;whiteSpace=wrap;connectable=0;strokeColor=inherit;overflow=hidden;fillColor=none;top=0;left=0;bottom=0;right=0;pointerEvents=1;fontSize=13;align=left;" vertex="1" parent="gQomMeaBvaKWh9qNt1xV-494">
          <mxGeometry x="87" width="113" height="40" as="geometry">
            <mxRectangle width="113" height="40" as="alternateBounds" />
          </mxGeometry>
        </mxCell>
        <mxCell id="gQomMeaBvaKWh9qNt1xV-497" value="Single line of text" style="shape=partialRectangle;html=1;whiteSpace=wrap;connectable=0;strokeColor=inherit;overflow=hidden;fillColor=none;top=0;left=0;bottom=0;right=0;pointerEvents=1;fontSize=16;" vertex="1" parent="gQomMeaBvaKWh9qNt1xV-494">
          <mxGeometry x="200" width="200" height="40" as="geometry">
            <mxRectangle width="200" height="40" as="alternateBounds" />
          </mxGeometry>
        </mxCell>
        <mxCell id="gQomMeaBvaKWh9qNt1xV-511" value="" style="shape=tableRow;horizontal=0;startSize=0;swimlaneHead=0;swimlaneBody=0;strokeColor=inherit;top=0;left=0;bottom=0;right=0;collapsible=0;dropTarget=0;fillColor=none;points=[[0,0.5],[1,0.5]];portConstraint=eastwest;fontSize=16;" vertex="1" parent="gQomMeaBvaKWh9qNt1xV-489">
          <mxGeometry y="110" width="400.0000000000009" height="40" as="geometry" />
        </mxCell>
        <mxCell id="gQomMeaBvaKWh9qNt1xV-512" value="FK" style="shape=partialRectangle;html=1;whiteSpace=wrap;connectable=0;strokeColor=inherit;overflow=hidden;fillColor=none;top=0;left=0;bottom=0;right=0;pointerEvents=1;fontSize=16;" vertex="1" parent="gQomMeaBvaKWh9qNt1xV-511">
          <mxGeometry width="87" height="40" as="geometry">
            <mxRectangle width="87" height="40" as="alternateBounds" />
          </mxGeometry>
        </mxCell>
        <mxCell id="gQomMeaBvaKWh9qNt1xV-513" value="&lt;span style=&quot;font-family: Verdana; text-wrap-mode: nowrap;&quot;&gt;StudentID&lt;/span&gt;" style="shape=partialRectangle;html=1;whiteSpace=wrap;connectable=0;strokeColor=inherit;overflow=hidden;fillColor=none;top=0;left=0;bottom=0;right=0;pointerEvents=1;fontSize=13;align=left;" vertex="1" parent="gQomMeaBvaKWh9qNt1xV-511">
          <mxGeometry x="87" width="113" height="40" as="geometry">
            <mxRectangle width="113" height="40" as="alternateBounds" />
          </mxGeometry>
        </mxCell>
        <mxCell id="gQomMeaBvaKWh9qNt1xV-514" value="Lookup" style="shape=partialRectangle;html=1;whiteSpace=wrap;connectable=0;strokeColor=inherit;overflow=hidden;fillColor=none;top=0;left=0;bottom=0;right=0;pointerEvents=1;fontSize=16;" vertex="1" parent="gQomMeaBvaKWh9qNt1xV-511">
          <mxGeometry x="200" width="200" height="40" as="geometry">
            <mxRectangle width="200" height="40" as="alternateBounds" />
          </mxGeometry>
        </mxCell>
        <mxCell id="gQomMeaBvaKWh9qNt1xV-507" value="" style="shape=tableRow;horizontal=0;startSize=0;swimlaneHead=0;swimlaneBody=0;strokeColor=inherit;top=0;left=0;bottom=0;right=0;collapsible=0;dropTarget=0;fillColor=none;points=[[0,0.5],[1,0.5]];portConstraint=eastwest;fontSize=16;" vertex="1" parent="gQomMeaBvaKWh9qNt1xV-489">
          <mxGeometry y="150" width="400.0000000000009" height="40" as="geometry" />
        </mxCell>
        <mxCell id="gQomMeaBvaKWh9qNt1xV-508" value="" style="shape=partialRectangle;html=1;whiteSpace=wrap;connectable=0;strokeColor=inherit;overflow=hidden;fillColor=none;top=0;left=0;bottom=0;right=0;pointerEvents=1;fontSize=16;" vertex="1" parent="gQomMeaBvaKWh9qNt1xV-507">
          <mxGeometry width="87" height="40" as="geometry">
            <mxRectangle width="87" height="40" as="alternateBounds" />
          </mxGeometry>
        </mxCell>
        <mxCell id="gQomMeaBvaKWh9qNt1xV-509" value="&lt;span style=&quot;font-family: Verdana; text-wrap-mode: nowrap;&quot;&gt;Active&lt;/span&gt;" style="shape=partialRectangle;html=1;whiteSpace=wrap;connectable=0;strokeColor=inherit;overflow=hidden;fillColor=none;top=0;left=0;bottom=0;right=0;pointerEvents=1;fontSize=13;align=left;" vertex="1" parent="gQomMeaBvaKWh9qNt1xV-507">
          <mxGeometry x="87" width="113" height="40" as="geometry">
            <mxRectangle width="113" height="40" as="alternateBounds" />
          </mxGeometry>
        </mxCell>
        <mxCell id="gQomMeaBvaKWh9qNt1xV-510" value="Yes/No" style="shape=partialRectangle;html=1;whiteSpace=wrap;connectable=0;strokeColor=inherit;overflow=hidden;fillColor=none;top=0;left=0;bottom=0;right=0;pointerEvents=1;fontSize=16;" vertex="1" parent="gQomMeaBvaKWh9qNt1xV-507">
          <mxGeometry x="200" width="200" height="40" as="geometry">
            <mxRectangle width="200" height="40" as="alternateBounds" />
          </mxGeometry>
        </mxCell>
        <mxCell id="gQomMeaBvaKWh9qNt1xV-498" value="AppRole" style="shape=table;startSize=40;container=1;collapsible=0;childLayout=tableLayout;strokeColor=#6c8ebf;fontSize=16;fontFamily=Helvetica;align=center;fontStyle=1;fillColor=#dae8fc;gradientColor=none;swimlaneFillColor=default;" vertex="1" parent="1">
          <mxGeometry x="1290" y="1110" width="400.0000000000009" height="120" as="geometry" />
        </mxCell>
        <mxCell id="gQomMeaBvaKWh9qNt1xV-499" value="" style="shape=tableRow;horizontal=0;startSize=0;swimlaneHead=0;swimlaneBody=0;strokeColor=inherit;top=0;left=0;bottom=0;right=0;collapsible=0;dropTarget=0;fillColor=none;points=[[0,0.5],[1,0.5]];portConstraint=eastwest;fontSize=16;" vertex="1" parent="gQomMeaBvaKWh9qNt1xV-498">
          <mxGeometry y="40" width="400.0000000000009" height="40" as="geometry" />
        </mxCell>
        <mxCell id="gQomMeaBvaKWh9qNt1xV-500" value="PK" style="shape=partialRectangle;html=1;whiteSpace=wrap;connectable=0;strokeColor=inherit;overflow=hidden;fillColor=none;top=0;left=0;bottom=0;right=0;pointerEvents=1;fontSize=16;align=center;" vertex="1" parent="gQomMeaBvaKWh9qNt1xV-499">
          <mxGeometry width="87" height="40" as="geometry">
            <mxRectangle width="87" height="40" as="alternateBounds" />
          </mxGeometry>
        </mxCell>
        <mxCell id="gQomMeaBvaKWh9qNt1xV-501" value="DefaultID" style="shape=partialRectangle;html=1;whiteSpace=wrap;connectable=0;strokeColor=inherit;overflow=hidden;fillColor=none;top=0;left=0;bottom=0;right=0;pointerEvents=1;fontSize=13;align=left;" vertex="1" parent="gQomMeaBvaKWh9qNt1xV-499">
          <mxGeometry x="87" width="113" height="40" as="geometry">
            <mxRectangle width="113" height="40" as="alternateBounds" />
          </mxGeometry>
        </mxCell>
        <mxCell id="gQomMeaBvaKWh9qNt1xV-502" value="" style="shape=partialRectangle;html=1;whiteSpace=wrap;connectable=0;strokeColor=inherit;overflow=hidden;fillColor=none;top=0;left=0;bottom=0;right=0;pointerEvents=1;fontSize=16;" vertex="1" parent="gQomMeaBvaKWh9qNt1xV-499">
          <mxGeometry x="200" width="200" height="40" as="geometry">
            <mxRectangle width="200" height="40" as="alternateBounds" />
          </mxGeometry>
        </mxCell>
        <mxCell id="gQomMeaBvaKWh9qNt1xV-503" value="" style="shape=tableRow;horizontal=0;startSize=0;swimlaneHead=0;swimlaneBody=0;strokeColor=inherit;top=0;left=0;bottom=0;right=0;collapsible=0;dropTarget=0;fillColor=none;points=[[0,0.5],[1,0.5]];portConstraint=eastwest;fontSize=16;" vertex="1" parent="gQomMeaBvaKWh9qNt1xV-498">
          <mxGeometry y="80" width="400.0000000000009" height="40" as="geometry" />
        </mxCell>
        <mxCell id="gQomMeaBvaKWh9qNt1xV-504" value="" style="shape=partialRectangle;html=1;whiteSpace=wrap;connectable=0;strokeColor=inherit;overflow=hidden;fillColor=none;top=0;left=0;bottom=0;right=0;pointerEvents=1;fontSize=16;" vertex="1" parent="gQomMeaBvaKWh9qNt1xV-503">
          <mxGeometry width="87" height="40" as="geometry">
            <mxRectangle width="87" height="40" as="alternateBounds" />
          </mxGeometry>
        </mxCell>
        <mxCell id="gQomMeaBvaKWh9qNt1xV-505" value="&lt;span style=&quot;font-family: Verdana; text-wrap-mode: nowrap;&quot;&gt;Name&lt;/span&gt;" style="shape=partialRectangle;html=1;whiteSpace=wrap;connectable=0;strokeColor=inherit;overflow=hidden;fillColor=none;top=0;left=0;bottom=0;right=0;pointerEvents=1;fontSize=13;align=left;" vertex="1" parent="gQomMeaBvaKWh9qNt1xV-503">
          <mxGeometry x="87" width="113" height="40" as="geometry">
            <mxRectangle width="113" height="40" as="alternateBounds" />
          </mxGeometry>
        </mxCell>
        <mxCell id="gQomMeaBvaKWh9qNt1xV-506" value="Single line of text" style="shape=partialRectangle;html=1;whiteSpace=wrap;connectable=0;strokeColor=inherit;overflow=hidden;fillColor=none;top=0;left=0;bottom=0;right=0;pointerEvents=1;fontSize=16;" vertex="1" parent="gQomMeaBvaKWh9qNt1xV-503">
          <mxGeometry x="200" width="200" height="40" as="geometry">
            <mxRectangle width="200" height="40" as="alternateBounds" />
          </mxGeometry>
        </mxCell>
        <mxCell id="gQomMeaBvaKWh9qNt1xV-527" value="Department" style="shape=table;startSize=40;container=1;collapsible=0;childLayout=tableLayout;strokeColor=#6c8ebf;fontSize=16;fontFamily=Helvetica;align=center;fontStyle=1;fillColor=#dae8fc;gradientColor=none;swimlaneFillColor=default;" vertex="1" parent="1">
          <mxGeometry x="850" y="790" width="400.0000000000009" height="120" as="geometry" />
        </mxCell>
        <mxCell id="gQomMeaBvaKWh9qNt1xV-528" value="" style="shape=tableRow;horizontal=0;startSize=0;swimlaneHead=0;swimlaneBody=0;strokeColor=inherit;top=0;left=0;bottom=0;right=0;collapsible=0;dropTarget=0;fillColor=none;points=[[0,0.5],[1,0.5]];portConstraint=eastwest;fontSize=16;" vertex="1" parent="gQomMeaBvaKWh9qNt1xV-527">
          <mxGeometry y="40" width="400.0000000000009" height="40" as="geometry" />
        </mxCell>
        <mxCell id="gQomMeaBvaKWh9qNt1xV-529" value="PK" style="shape=partialRectangle;html=1;whiteSpace=wrap;connectable=0;strokeColor=inherit;overflow=hidden;fillColor=none;top=0;left=0;bottom=0;right=0;pointerEvents=1;fontSize=16;align=center;" vertex="1" parent="gQomMeaBvaKWh9qNt1xV-528">
          <mxGeometry width="87" height="40" as="geometry">
            <mxRectangle width="87" height="40" as="alternateBounds" />
          </mxGeometry>
        </mxCell>
        <mxCell id="gQomMeaBvaKWh9qNt1xV-530" value="DepartmentID" style="shape=partialRectangle;html=1;whiteSpace=wrap;connectable=0;strokeColor=inherit;overflow=hidden;fillColor=none;top=0;left=0;bottom=0;right=0;pointerEvents=1;fontSize=13;align=left;" vertex="1" parent="gQomMeaBvaKWh9qNt1xV-528">
          <mxGeometry x="87" width="113" height="40" as="geometry">
            <mxRectangle width="113" height="40" as="alternateBounds" />
          </mxGeometry>
        </mxCell>
        <mxCell id="gQomMeaBvaKWh9qNt1xV-531" value="" style="shape=partialRectangle;html=1;whiteSpace=wrap;connectable=0;strokeColor=inherit;overflow=hidden;fillColor=none;top=0;left=0;bottom=0;right=0;pointerEvents=1;fontSize=16;" vertex="1" parent="gQomMeaBvaKWh9qNt1xV-528">
          <mxGeometry x="200" width="200" height="40" as="geometry">
            <mxRectangle width="200" height="40" as="alternateBounds" />
          </mxGeometry>
        </mxCell>
        <mxCell id="gQomMeaBvaKWh9qNt1xV-532" value="" style="shape=tableRow;horizontal=0;startSize=0;swimlaneHead=0;swimlaneBody=0;strokeColor=inherit;top=0;left=0;bottom=0;right=0;collapsible=0;dropTarget=0;fillColor=none;points=[[0,0.5],[1,0.5]];portConstraint=eastwest;fontSize=16;" vertex="1" parent="gQomMeaBvaKWh9qNt1xV-527">
          <mxGeometry y="80" width="400.0000000000009" height="40" as="geometry" />
        </mxCell>
        <mxCell id="gQomMeaBvaKWh9qNt1xV-533" value="" style="shape=partialRectangle;html=1;whiteSpace=wrap;connectable=0;strokeColor=inherit;overflow=hidden;fillColor=none;top=0;left=0;bottom=0;right=0;pointerEvents=1;fontSize=16;" vertex="1" parent="gQomMeaBvaKWh9qNt1xV-532">
          <mxGeometry width="87" height="40" as="geometry">
            <mxRectangle width="87" height="40" as="alternateBounds" />
          </mxGeometry>
        </mxCell>
        <mxCell id="gQomMeaBvaKWh9qNt1xV-534" value="&lt;span style=&quot;font-family: Verdana; text-wrap-mode: nowrap;&quot;&gt;Name&lt;/span&gt;" style="shape=partialRectangle;html=1;whiteSpace=wrap;connectable=0;strokeColor=inherit;overflow=hidden;fillColor=none;top=0;left=0;bottom=0;right=0;pointerEvents=1;fontSize=13;align=left;" vertex="1" parent="gQomMeaBvaKWh9qNt1xV-532">
          <mxGeometry x="87" width="113" height="40" as="geometry">
            <mxRectangle width="113" height="40" as="alternateBounds" />
          </mxGeometry>
        </mxCell>
        <mxCell id="gQomMeaBvaKWh9qNt1xV-535" value="Single line of text" style="shape=partialRectangle;html=1;whiteSpace=wrap;connectable=0;strokeColor=inherit;overflow=hidden;fillColor=none;top=0;left=0;bottom=0;right=0;pointerEvents=1;fontSize=16;" vertex="1" parent="gQomMeaBvaKWh9qNt1xV-532">
          <mxGeometry x="200" width="200" height="40" as="geometry">
            <mxRectangle width="200" height="40" as="alternateBounds" />
          </mxGeometry>
        </mxCell>
        <mxCell id="gQomMeaBvaKWh9qNt1xV-536" value="Table" style="shape=table;startSize=40;container=1;collapsible=0;childLayout=tableLayout;strokeColor=#6c8ebf;fontSize=16;fontFamily=Helvetica;align=center;fontStyle=1;fillColor=#dae8fc;gradientColor=none;swimlaneFillColor=default;" vertex="1" parent="1">
          <mxGeometry x="360" y="-360" width="400.0000000000009" height="120" as="geometry" />
        </mxCell>
        <mxCell id="gQomMeaBvaKWh9qNt1xV-537" value="" style="shape=tableRow;horizontal=0;startSize=0;swimlaneHead=0;swimlaneBody=0;strokeColor=inherit;top=0;left=0;bottom=0;right=0;collapsible=0;dropTarget=0;fillColor=none;points=[[0,0.5],[1,0.5]];portConstraint=eastwest;fontSize=16;" vertex="1" parent="gQomMeaBvaKWh9qNt1xV-536">
          <mxGeometry y="40" width="400.0000000000009" height="40" as="geometry" />
        </mxCell>
        <mxCell id="gQomMeaBvaKWh9qNt1xV-538" value="PK" style="shape=partialRectangle;html=1;whiteSpace=wrap;connectable=0;strokeColor=inherit;overflow=hidden;fillColor=none;top=0;left=0;bottom=0;right=0;pointerEvents=1;fontSize=16;align=center;" vertex="1" parent="gQomMeaBvaKWh9qNt1xV-537">
          <mxGeometry width="87" height="40" as="geometry">
            <mxRectangle width="87" height="40" as="alternateBounds" />
          </mxGeometry>
        </mxCell>
        <mxCell id="gQomMeaBvaKWh9qNt1xV-539" value="DefaultID" style="shape=partialRectangle;html=1;whiteSpace=wrap;connectable=0;strokeColor=inherit;overflow=hidden;fillColor=none;top=0;left=0;bottom=0;right=0;pointerEvents=1;fontSize=13;align=left;" vertex="1" parent="gQomMeaBvaKWh9qNt1xV-537">
          <mxGeometry x="87" width="113" height="40" as="geometry">
            <mxRectangle width="113" height="40" as="alternateBounds" />
          </mxGeometry>
        </mxCell>
        <mxCell id="gQomMeaBvaKWh9qNt1xV-540" value="" style="shape=partialRectangle;html=1;whiteSpace=wrap;connectable=0;strokeColor=inherit;overflow=hidden;fillColor=none;top=0;left=0;bottom=0;right=0;pointerEvents=1;fontSize=16;" vertex="1" parent="gQomMeaBvaKWh9qNt1xV-537">
          <mxGeometry x="200" width="200" height="40" as="geometry">
            <mxRectangle width="200" height="40" as="alternateBounds" />
          </mxGeometry>
        </mxCell>
        <mxCell id="gQomMeaBvaKWh9qNt1xV-541" value="" style="shape=tableRow;horizontal=0;startSize=0;swimlaneHead=0;swimlaneBody=0;strokeColor=inherit;top=0;left=0;bottom=0;right=0;collapsible=0;dropTarget=0;fillColor=none;points=[[0,0.5],[1,0.5]];portConstraint=eastwest;fontSize=16;" vertex="1" parent="gQomMeaBvaKWh9qNt1xV-536">
          <mxGeometry y="80" width="400.0000000000009" height="40" as="geometry" />
        </mxCell>
        <mxCell id="gQomMeaBvaKWh9qNt1xV-542" value="" style="shape=partialRectangle;html=1;whiteSpace=wrap;connectable=0;strokeColor=inherit;overflow=hidden;fillColor=none;top=0;left=0;bottom=0;right=0;pointerEvents=1;fontSize=16;" vertex="1" parent="gQomMeaBvaKWh9qNt1xV-541">
          <mxGeometry width="87" height="40" as="geometry">
            <mxRectangle width="87" height="40" as="alternateBounds" />
          </mxGeometry>
        </mxCell>
        <mxCell id="gQomMeaBvaKWh9qNt1xV-543" value="&lt;span style=&quot;font-family: Verdana; text-wrap-mode: nowrap;&quot;&gt;Name&lt;/span&gt;" style="shape=partialRectangle;html=1;whiteSpace=wrap;connectable=0;strokeColor=inherit;overflow=hidden;fillColor=none;top=0;left=0;bottom=0;right=0;pointerEvents=1;fontSize=13;align=left;" vertex="1" parent="gQomMeaBvaKWh9qNt1xV-541">
          <mxGeometry x="87" width="113" height="40" as="geometry">
            <mxRectangle width="113" height="40" as="alternateBounds" />
          </mxGeometry>
        </mxCell>
        <mxCell id="gQomMeaBvaKWh9qNt1xV-544" value="Single line of text" style="shape=partialRectangle;html=1;whiteSpace=wrap;connectable=0;strokeColor=inherit;overflow=hidden;fillColor=none;top=0;left=0;bottom=0;right=0;pointerEvents=1;fontSize=16;" vertex="1" parent="gQomMeaBvaKWh9qNt1xV-541">
          <mxGeometry x="200" width="200" height="40" as="geometry">
            <mxRectangle width="200" height="40" as="alternateBounds" />
          </mxGeometry>
        </mxCell>
      </root>
    </mxGraphModel>
  </diagram>
</mxfile>
